<?xml version="1.0" encoding="UTF-8"?>
<svg xmlns="http://www.w3.org/2000/svg" xmlns:xlink="http://www.w3.org/1999/xlink" width="1920" height="1080" viewBox="0 0 1920 1080">
<rect x="-192" y="-108" width="2304" height="1296" fill="rgb(100%, 100%, 100%)" fill-opacity="1"/>
<path fill-rule="evenodd" fill="rgb(0%, 0%, 0%)" fill-opacity="1" d="M 0 1080 L 0 0 L 222 0 L 222 1080 Z M 0 1080 "/>
<path fill-rule="evenodd" fill="rgb(35.699463%, 60.798645%, 83.499146%)" fill-opacity="1" d="M 269.238281 66 L 1867.359375 66 L 1867.359375 7.601562 L 269.238281 7.601562 Z M 269.238281 66 "/>
<path fill-rule="evenodd" fill="rgb(0%, 0%, 0%)" fill-opacity="1" d="M 269.238281 124.398438 L 1044.941406 124.398438 L 1044.941406 66 L 269.238281 66 Z M 269.238281 124.398438 "/>
<path fill-rule="evenodd" fill="rgb(0%, 0%, 0%)" fill-opacity="1" d="M 1044.921875 124.398438 L 1393.539062 124.398438 L 1393.539062 66 L 1044.921875 66 Z M 1044.921875 124.398438 "/>
<path fill-rule="evenodd" fill="rgb(0%, 0%, 0%)" fill-opacity="1" d="M 1393.539062 124.398438 L 1867.339844 124.398438 L 1867.339844 66 L 1393.539062 66 Z M 1393.539062 124.398438 "/>
<path fill-rule="evenodd" fill="rgb(91.799927%, 93.699646%, 96.899414%)" fill-opacity="1" d="M 269.238281 182.800781 L 1044.941406 182.800781 L 1044.941406 124.398438 L 269.238281 124.398438 Z M 269.238281 182.800781 "/>
<path fill-rule="evenodd" fill="rgb(91.799927%, 93.699646%, 96.899414%)" fill-opacity="1" d="M 1044.921875 182.800781 L 1393.539062 182.800781 L 1393.539062 124.398438 L 1044.921875 124.398438 Z M 1044.921875 182.800781 "/>
<path fill-rule="evenodd" fill="rgb(91.799927%, 93.699646%, 96.899414%)" fill-opacity="1" d="M 1393.539062 182.800781 L 1867.339844 182.800781 L 1867.339844 124.398438 L 1393.539062 124.398438 Z M 1393.539062 182.800781 "/>
<path fill-rule="evenodd" fill="rgb(82.398987%, 87.098694%, 93.699646%)" fill-opacity="1" d="M 269.238281 241.199219 L 1044.941406 241.199219 L 1044.941406 182.800781 L 269.238281 182.800781 Z M 269.238281 241.199219 "/>
<path fill-rule="evenodd" fill="rgb(82.398987%, 87.098694%, 93.699646%)" fill-opacity="1" d="M 1044.921875 241.199219 L 1393.539062 241.199219 L 1393.539062 182.800781 L 1044.921875 182.800781 Z M 1044.921875 241.199219 "/>
<path fill-rule="evenodd" fill="rgb(82.398987%, 87.098694%, 93.699646%)" fill-opacity="1" d="M 1393.539062 241.199219 L 1867.339844 241.199219 L 1867.339844 182.800781 L 1393.539062 182.800781 Z M 1393.539062 241.199219 "/>
<path fill-rule="evenodd" fill="rgb(91.799927%, 93.699646%, 96.899414%)" fill-opacity="1" d="M 269.238281 294 L 1044.941406 294 L 1044.941406 241.199219 L 269.238281 241.199219 Z M 269.238281 294 "/>
<path fill-rule="evenodd" fill="rgb(91.799927%, 93.699646%, 96.899414%)" fill-opacity="1" d="M 1044.921875 294 L 1393.539062 294 L 1393.539062 241.199219 L 1044.921875 241.199219 Z M 1044.921875 294 "/>
<path fill-rule="evenodd" fill="rgb(91.799927%, 93.699646%, 96.899414%)" fill-opacity="1" d="M 1393.539062 294 L 1867.339844 294 L 1867.339844 241.199219 L 1393.539062 241.199219 Z M 1393.539062 294 "/>
<path fill-rule="evenodd" fill="rgb(82.398987%, 87.098694%, 93.699646%)" fill-opacity="1" d="M 269.238281 346.800781 L 1044.941406 346.800781 L 1044.941406 294 L 269.238281 294 Z M 269.238281 346.800781 "/>
<path fill-rule="evenodd" fill="rgb(82.398987%, 87.098694%, 93.699646%)" fill-opacity="1" d="M 1044.921875 346.800781 L 1393.539062 346.800781 L 1393.539062 294 L 1044.921875 294 Z M 1044.921875 346.800781 "/>
<path fill-rule="evenodd" fill="rgb(82.398987%, 87.098694%, 93.699646%)" fill-opacity="1" d="M 1393.539062 346.800781 L 1867.339844 346.800781 L 1867.339844 294 L 1393.539062 294 Z M 1393.539062 346.800781 "/>
<path fill-rule="evenodd" fill="rgb(91.799927%, 93.699646%, 96.899414%)" fill-opacity="1" d="M 269.238281 399.601562 L 1044.941406 399.601562 L 1044.941406 346.800781 L 269.238281 346.800781 Z M 269.238281 399.601562 "/>
<path fill-rule="evenodd" fill="rgb(91.799927%, 93.699646%, 96.899414%)" fill-opacity="1" d="M 1044.921875 399.601562 L 1393.539062 399.601562 L 1393.539062 346.800781 L 1044.921875 346.800781 Z M 1044.921875 399.601562 "/>
<path fill-rule="evenodd" fill="rgb(91.799927%, 93.699646%, 96.899414%)" fill-opacity="1" d="M 1393.539062 399.601562 L 1867.339844 399.601562 L 1867.339844 346.800781 L 1393.539062 346.800781 Z M 1393.539062 399.601562 "/>
<path fill-rule="evenodd" fill="rgb(82.398987%, 87.098694%, 93.699646%)" fill-opacity="1" d="M 269.238281 490.800781 L 1044.941406 490.800781 L 1044.941406 399.601562 L 269.238281 399.601562 Z M 269.238281 490.800781 "/>
<path fill-rule="evenodd" fill="rgb(82.398987%, 87.098694%, 93.699646%)" fill-opacity="1" d="M 1044.921875 490.800781 L 1393.539062 490.800781 L 1393.539062 399.601562 L 1044.921875 399.601562 Z M 1044.921875 490.800781 "/>
<path fill-rule="evenodd" fill="rgb(82.398987%, 87.098694%, 93.699646%)" fill-opacity="1" d="M 1393.539062 490.800781 L 1867.339844 490.800781 L 1867.339844 399.601562 L 1393.539062 399.601562 Z M 1393.539062 490.800781 "/>
<path fill-rule="evenodd" fill="rgb(91.799927%, 93.699646%, 96.899414%)" fill-opacity="1" d="M 269.238281 543.601562 L 1044.941406 543.601562 L 1044.941406 490.800781 L 269.238281 490.800781 Z M 269.238281 543.601562 "/>
<path fill-rule="evenodd" fill="rgb(91.799927%, 93.699646%, 96.899414%)" fill-opacity="1" d="M 1044.921875 543.601562 L 1393.539062 543.601562 L 1393.539062 490.800781 L 1044.921875 490.800781 Z M 1044.921875 543.601562 "/>
<path fill-rule="evenodd" fill="rgb(91.799927%, 93.699646%, 96.899414%)" fill-opacity="1" d="M 1393.539062 543.601562 L 1867.339844 543.601562 L 1867.339844 490.800781 L 1393.539062 490.800781 Z M 1393.539062 543.601562 "/>
<path fill-rule="evenodd" fill="rgb(82.398987%, 87.098694%, 93.699646%)" fill-opacity="1" d="M 269.238281 596.398438 L 1044.941406 596.398438 L 1044.941406 543.601562 L 269.238281 543.601562 Z M 269.238281 596.398438 "/>
<path fill-rule="evenodd" fill="rgb(82.398987%, 87.098694%, 93.699646%)" fill-opacity="1" d="M 1044.921875 596.398438 L 1393.539062 596.398438 L 1393.539062 543.601562 L 1044.921875 543.601562 Z M 1044.921875 596.398438 "/>
<path fill-rule="evenodd" fill="rgb(82.398987%, 87.098694%, 93.699646%)" fill-opacity="1" d="M 1393.539062 596.398438 L 1867.339844 596.398438 L 1867.339844 543.601562 L 1393.539062 543.601562 Z M 1393.539062 596.398438 "/>
<path fill-rule="evenodd" fill="rgb(91.799927%, 93.699646%, 96.899414%)" fill-opacity="1" d="M 269.238281 649.199219 L 1044.941406 649.199219 L 1044.941406 596.398438 L 269.238281 596.398438 Z M 269.238281 649.199219 "/>
<path fill-rule="evenodd" fill="rgb(91.799927%, 93.699646%, 96.899414%)" fill-opacity="1" d="M 1044.921875 649.199219 L 1393.539062 649.199219 L 1393.539062 596.398438 L 1044.921875 596.398438 Z M 1044.921875 649.199219 "/>
<path fill-rule="evenodd" fill="rgb(91.799927%, 93.699646%, 96.899414%)" fill-opacity="1" d="M 1393.539062 649.199219 L 1867.339844 649.199219 L 1867.339844 596.398438 L 1393.539062 596.398438 Z M 1393.539062 649.199219 "/>
<path fill-rule="evenodd" fill="rgb(82.398987%, 87.098694%, 93.699646%)" fill-opacity="1" d="M 269.238281 702 L 1044.941406 702 L 1044.941406 649.199219 L 269.238281 649.199219 Z M 269.238281 702 "/>
<path fill-rule="evenodd" fill="rgb(82.398987%, 87.098694%, 93.699646%)" fill-opacity="1" d="M 1044.921875 702 L 1393.539062 702 L 1393.539062 649.199219 L 1044.921875 649.199219 Z M 1044.921875 702 "/>
<path fill-rule="evenodd" fill="rgb(82.398987%, 87.098694%, 93.699646%)" fill-opacity="1" d="M 1393.539062 702 L 1867.339844 702 L 1867.339844 649.199219 L 1393.539062 649.199219 Z M 1393.539062 702 "/>
<path fill-rule="evenodd" fill="rgb(91.799927%, 93.699646%, 96.899414%)" fill-opacity="1" d="M 269.238281 754.800781 L 1044.941406 754.800781 L 1044.941406 702 L 269.238281 702 Z M 269.238281 754.800781 "/>
<path fill-rule="evenodd" fill="rgb(91.799927%, 93.699646%, 96.899414%)" fill-opacity="1" d="M 1044.921875 754.800781 L 1393.539062 754.800781 L 1393.539062 702 L 1044.921875 702 Z M 1044.921875 754.800781 "/>
<path fill-rule="evenodd" fill="rgb(91.799927%, 93.699646%, 96.899414%)" fill-opacity="1" d="M 1393.539062 754.800781 L 1867.339844 754.800781 L 1867.339844 702 L 1393.539062 702 Z M 1393.539062 754.800781 "/>
<path fill-rule="evenodd" fill="rgb(82.398987%, 87.098694%, 93.699646%)" fill-opacity="1" d="M 269.238281 807.601562 L 1044.941406 807.601562 L 1044.941406 754.800781 L 269.238281 754.800781 Z M 269.238281 807.601562 "/>
<path fill-rule="evenodd" fill="rgb(82.398987%, 87.098694%, 93.699646%)" fill-opacity="1" d="M 1044.921875 807.601562 L 1393.539062 807.601562 L 1393.539062 754.800781 L 1044.921875 754.800781 Z M 1044.921875 807.601562 "/>
<path fill-rule="evenodd" fill="rgb(82.398987%, 87.098694%, 93.699646%)" fill-opacity="1" d="M 1393.539062 807.601562 L 1867.339844 807.601562 L 1867.339844 754.800781 L 1393.539062 754.800781 Z M 1393.539062 807.601562 "/>
<path fill-rule="evenodd" fill="rgb(91.799927%, 93.699646%, 96.899414%)" fill-opacity="1" d="M 269.238281 860.398438 L 1044.941406 860.398438 L 1044.941406 807.601562 L 269.238281 807.601562 Z M 269.238281 860.398438 "/>
<path fill-rule="evenodd" fill="rgb(91.799927%, 93.699646%, 96.899414%)" fill-opacity="1" d="M 1044.921875 860.398438 L 1393.539062 860.398438 L 1393.539062 807.601562 L 1044.921875 807.601562 Z M 1044.921875 860.398438 "/>
<path fill-rule="evenodd" fill="rgb(91.799927%, 93.699646%, 96.899414%)" fill-opacity="1" d="M 1393.539062 860.398438 L 1867.339844 860.398438 L 1867.339844 807.601562 L 1393.539062 807.601562 Z M 1393.539062 860.398438 "/>
<path fill-rule="evenodd" fill="rgb(82.398987%, 87.098694%, 93.699646%)" fill-opacity="1" d="M 269.238281 951.609375 L 1044.941406 951.609375 L 1044.941406 860.40625 L 269.238281 860.40625 Z M 269.238281 951.609375 "/>
<path fill-rule="evenodd" fill="rgb(82.398987%, 87.098694%, 93.699646%)" fill-opacity="1" d="M 1044.921875 951.609375 L 1393.539062 951.609375 L 1393.539062 860.40625 L 1044.921875 860.40625 Z M 1044.921875 951.609375 "/>
<path fill-rule="evenodd" fill="rgb(82.398987%, 87.098694%, 93.699646%)" fill-opacity="1" d="M 1393.539062 951.609375 L 1867.339844 951.609375 L 1867.339844 860.40625 L 1393.539062 860.40625 Z M 1393.539062 951.609375 "/>
<path fill-rule="evenodd" fill="rgb(91.799927%, 93.699646%, 96.899414%)" fill-opacity="1" d="M 269.238281 1004.40625 L 1044.941406 1004.40625 L 1044.941406 951.609375 L 269.238281 951.609375 Z M 269.238281 1004.40625 "/>
<path fill-rule="evenodd" fill="rgb(91.799927%, 93.699646%, 96.899414%)" fill-opacity="1" d="M 1044.921875 1004.40625 L 1393.539062 1004.40625 L 1393.539062 951.609375 L 1044.921875 951.609375 Z M 1044.921875 1004.40625 "/>
<path fill-rule="evenodd" fill="rgb(91.799927%, 93.699646%, 96.899414%)" fill-opacity="1" d="M 1393.539062 1004.40625 L 1867.339844 1004.40625 L 1867.339844 951.609375 L 1393.539062 951.609375 Z M 1393.539062 1004.40625 "/>
<path fill="none" stroke-width="1" stroke-linecap="butt" stroke-linejoin="round" stroke="rgb(100%, 100%, 100%)" stroke-opacity="1" stroke-miterlimit="10" d="M 522.460938 508.5 L 522.460938 37.296875 " transform="matrix(2, 0, 0, -2, 0, 1080)"/>
<path fill="none" stroke-width="1" stroke-linecap="butt" stroke-linejoin="round" stroke="rgb(100%, 100%, 100%)" stroke-opacity="1" stroke-miterlimit="10" d="M 696.769531 508.5 L 696.769531 37.296875 " transform="matrix(2, 0, 0, -2, 0, 1080)"/>
<path fill="none" stroke-width="3" stroke-linecap="butt" stroke-linejoin="round" stroke="rgb(100%, 100%, 100%)" stroke-opacity="1" stroke-miterlimit="10" d="M 134.119141 507 L 934.179688 507 " transform="matrix(2, 0, 0, -2, 0, 1080)"/>
<path fill="none" stroke-width="1" stroke-linecap="butt" stroke-linejoin="round" stroke="rgb(100%, 100%, 100%)" stroke-opacity="1" stroke-miterlimit="10" d="M 134.119141 477.800781 L 934.179688 477.800781 " transform="matrix(2, 0, 0, -2, 0, 1080)"/>
<path fill="none" stroke-width="1" stroke-linecap="butt" stroke-linejoin="round" stroke="rgb(100%, 100%, 100%)" stroke-opacity="1" stroke-miterlimit="10" d="M 134.119141 448.599609 L 934.179688 448.599609 " transform="matrix(2, 0, 0, -2, 0, 1080)"/>
<path fill="none" stroke-width="1" stroke-linecap="butt" stroke-linejoin="round" stroke="rgb(100%, 100%, 100%)" stroke-opacity="1" stroke-miterlimit="10" d="M 134.119141 419.400391 L 934.179688 419.400391 " transform="matrix(2, 0, 0, -2, 0, 1080)"/>
<path fill="none" stroke-width="1" stroke-linecap="butt" stroke-linejoin="round" stroke="rgb(100%, 100%, 100%)" stroke-opacity="1" stroke-miterlimit="10" d="M 134.119141 393 L 934.179688 393 " transform="matrix(2, 0, 0, -2, 0, 1080)"/>
<path fill="none" stroke-width="1" stroke-linecap="butt" stroke-linejoin="round" stroke="rgb(100%, 100%, 100%)" stroke-opacity="1" stroke-miterlimit="10" d="M 134.119141 366.599609 L 934.179688 366.599609 " transform="matrix(2, 0, 0, -2, 0, 1080)"/>
<path fill="none" stroke-width="1" stroke-linecap="butt" stroke-linejoin="round" stroke="rgb(100%, 100%, 100%)" stroke-opacity="1" stroke-miterlimit="10" d="M 134.119141 340.199219 L 934.179688 340.199219 " transform="matrix(2, 0, 0, -2, 0, 1080)"/>
<path fill="none" stroke-width="1" stroke-linecap="butt" stroke-linejoin="round" stroke="rgb(100%, 100%, 100%)" stroke-opacity="1" stroke-miterlimit="10" d="M 134.119141 294.599609 L 934.179688 294.599609 " transform="matrix(2, 0, 0, -2, 0, 1080)"/>
<path fill="none" stroke-width="1" stroke-linecap="butt" stroke-linejoin="round" stroke="rgb(100%, 100%, 100%)" stroke-opacity="1" stroke-miterlimit="10" d="M 134.119141 268.199219 L 934.179688 268.199219 " transform="matrix(2, 0, 0, -2, 0, 1080)"/>
<path fill="none" stroke-width="1" stroke-linecap="butt" stroke-linejoin="round" stroke="rgb(100%, 100%, 100%)" stroke-opacity="1" stroke-miterlimit="10" d="M 134.119141 241.800781 L 934.179688 241.800781 " transform="matrix(2, 0, 0, -2, 0, 1080)"/>
<path fill="none" stroke-width="1" stroke-linecap="butt" stroke-linejoin="round" stroke="rgb(100%, 100%, 100%)" stroke-opacity="1" stroke-miterlimit="10" d="M 134.119141 215.400391 L 934.179688 215.400391 " transform="matrix(2, 0, 0, -2, 0, 1080)"/>
<path fill="none" stroke-width="1" stroke-linecap="butt" stroke-linejoin="round" stroke="rgb(100%, 100%, 100%)" stroke-opacity="1" stroke-miterlimit="10" d="M 134.119141 189 L 934.179688 189 " transform="matrix(2, 0, 0, -2, 0, 1080)"/>
<path fill="none" stroke-width="1" stroke-linecap="butt" stroke-linejoin="round" stroke="rgb(100%, 100%, 100%)" stroke-opacity="1" stroke-miterlimit="10" d="M 134.119141 162.599609 L 934.179688 162.599609 " transform="matrix(2, 0, 0, -2, 0, 1080)"/>
<path fill="none" stroke-width="1" stroke-linecap="butt" stroke-linejoin="round" stroke="rgb(100%, 100%, 100%)" stroke-opacity="1" stroke-miterlimit="10" d="M 134.119141 136.199219 L 934.179688 136.199219 " transform="matrix(2, 0, 0, -2, 0, 1080)"/>
<path fill="none" stroke-width="1" stroke-linecap="butt" stroke-linejoin="round" stroke="rgb(100%, 100%, 100%)" stroke-opacity="1" stroke-miterlimit="10" d="M 134.119141 109.800781 L 934.179688 109.800781 " transform="matrix(2, 0, 0, -2, 0, 1080)"/>
<path fill="none" stroke-width="1" stroke-linecap="butt" stroke-linejoin="round" stroke="rgb(100%, 100%, 100%)" stroke-opacity="1" stroke-miterlimit="10" d="M 134.119141 64.195312 L 934.179688 64.195312 " transform="matrix(2, 0, 0, -2, 0, 1080)"/>
<path fill="none" stroke-width="1" stroke-linecap="butt" stroke-linejoin="round" stroke="rgb(100%, 100%, 100%)" stroke-opacity="1" stroke-miterlimit="10" d="M 134.619141 536.699219 L 134.619141 37.296875 " transform="matrix(2, 0, 0, -2, 0, 1080)"/>
<path fill="none" stroke-width="1" stroke-linecap="butt" stroke-linejoin="round" stroke="rgb(100%, 100%, 100%)" stroke-opacity="1" stroke-miterlimit="10" d="M 933.679688 536.699219 L 933.679688 37.296875 " transform="matrix(2, 0, 0, -2, 0, 1080)"/>
<path fill="none" stroke-width="1" stroke-linecap="butt" stroke-linejoin="round" stroke="rgb(100%, 100%, 100%)" stroke-opacity="1" stroke-miterlimit="10" d="M 134.119141 536.199219 L 934.179688 536.199219 " transform="matrix(2, 0, 0, -2, 0, 1080)"/>
<path fill="none" stroke-width="1" stroke-linecap="butt" stroke-linejoin="round" stroke="rgb(100%, 100%, 100%)" stroke-opacity="1" stroke-miterlimit="10" d="M 134.119141 37.796875 L 934.179688 37.796875 " transform="matrix(2, 0, 0, -2, 0, 1080)"/>
</svg>
