<?xml version="1.0" encoding="UTF-8"?>
<svg xmlns="http://www.w3.org/2000/svg" xmlns:xlink="http://www.w3.org/1999/xlink" width="1920" height="1080" viewBox="0 0 1920 1080">
<rect x="-192" y="-108" width="2304" height="1296" fill="rgb(100%, 100%, 100%)" fill-opacity="1"/>
<path fill-rule="evenodd" fill="rgb(0%, 0%, 0%)" fill-opacity="1" d="M 1057.378906 170.5 L 1914.460938 170.5 L 1914.460938 29.664062 L 1057.378906 29.664062 Z M 1057.378906 170.5 "/>
<path fill-rule="evenodd" fill="rgb(98.399353%, 89.7995%, 83.898926%)" fill-opacity="1" d="M 1287.601562 343.300781 L 1511.320312 343.300781 L 1511.320312 170.5 L 1287.601562 170.5 Z M 1287.601562 343.300781 "/>
<path fill-rule="evenodd" fill="rgb(98.399353%, 89.7995%, 83.898926%)" fill-opacity="1" d="M 1511.320312 343.300781 L 1727.78125 343.300781 L 1727.78125 170.5 L 1511.320312 170.5 Z M 1511.320312 343.300781 "/>
<path fill-rule="evenodd" fill="rgb(74.099731%, 84.298706%, 93.299866%)" fill-opacity="1" d="M 1727.78125 343.300781 L 1914.453125 343.300781 L 1914.453125 170.5 L 1727.78125 170.5 Z M 1727.78125 343.300781 "/>
<path fill-rule="evenodd" fill="rgb(79.998779%, 59.999084%, 100%)" fill-opacity="1" d="M 1057.378906 516.101562 L 1287.601562 516.101562 L 1287.601562 343.300781 L 1057.378906 343.300781 Z M 1057.378906 516.101562 "/>
<path fill-rule="evenodd" fill="rgb(79.998779%, 59.999084%, 100%)" fill-opacity="1" d="M 1287.601562 516.101562 L 1511.320312 516.101562 L 1511.320312 343.300781 L 1287.601562 343.300781 Z M 1287.601562 516.101562 "/>
<path fill-rule="evenodd" fill="rgb(74.099731%, 84.298706%, 93.299866%)" fill-opacity="1" d="M 1727.78125 722.5 L 1914.453125 722.5 L 1914.453125 343.300781 L 1727.78125 343.300781 Z M 1727.78125 722.5 "/>
<path fill-rule="evenodd" fill="rgb(100%, 94.898987%, 79.998779%)" fill-opacity="1" d="M 1057.378906 722.5 L 1287.601562 722.5 L 1287.601562 516.101562 L 1057.378906 516.101562 Z M 1057.378906 722.5 "/>
<path fill-rule="evenodd" fill="rgb(100%, 94.898987%, 79.998779%)" fill-opacity="1" d="M 1287.601562 722.5 L 1511.320312 722.5 L 1511.320312 516.101562 L 1287.601562 516.101562 Z M 1287.601562 722.5 "/>
<path fill-rule="evenodd" fill="rgb(81.599426%, 80.799866%, 80.799866%)" fill-opacity="1" d="M 1511.320312 722.5 L 1727.78125 722.5 L 1727.78125 516.101562 L 1511.320312 516.101562 Z M 1511.320312 722.5 "/>
<path fill-rule="evenodd" fill="rgb(77.2995%, 87.799072%, 70.599365%)" fill-opacity="1" d="M 1057.378906 895.300781 L 1287.601562 895.300781 L 1287.601562 722.5 L 1057.378906 722.5 Z M 1057.378906 895.300781 "/>
<path fill-rule="evenodd" fill="rgb(77.2995%, 87.799072%, 70.599365%)" fill-opacity="1" d="M 1287.601562 895.300781 L 1511.320312 895.300781 L 1511.320312 722.5 L 1287.601562 722.5 Z M 1287.601562 895.300781 "/>
<path fill-rule="evenodd" fill="rgb(81.599426%, 80.799866%, 80.799866%)" fill-opacity="1" d="M 1511.320312 895.300781 L 1727.78125 895.300781 L 1727.78125 722.5 L 1511.320312 722.5 Z M 1511.320312 895.300781 "/>
<path fill-rule="evenodd" fill="rgb(100%, 75.299072%, 0%)" fill-opacity="1" d="M 1057.378906 1058.5 L 1511.320312 1058.5 L 1511.320312 895.300781 L 1057.378906 895.300781 Z M 1057.378906 1058.5 "/>
<path fill-rule="evenodd" fill="rgb(100%, 75.299072%, 0%)" fill-opacity="1" d="M 1511.320312 1058.5 L 1727.78125 1058.5 L 1727.78125 895.300781 L 1511.320312 895.300781 Z M 1511.320312 1058.5 "/>
<path fill="none" stroke-width="1" stroke-linecap="butt" stroke-linejoin="round" stroke="rgb(0%, 0%, 0%)" stroke-opacity="1" stroke-miterlimit="10" d="M 643.800781 455.25 L 643.800781 91.849609 " transform="matrix(2, 0, 0, -2, 0, 1080)"/>
<path fill="none" stroke-width="1" stroke-linecap="butt" stroke-linejoin="round" stroke="rgb(0%, 0%, 0%)" stroke-opacity="1" stroke-miterlimit="10" d="M 755.660156 455.25 L 755.660156 10.25 " transform="matrix(2, 0, 0, -2, 0, 1080)"/>
<path fill="none" stroke-width="1" stroke-linecap="butt" stroke-linejoin="round" stroke="rgb(0%, 0%, 0%)" stroke-opacity="1" stroke-miterlimit="10" d="M 863.890625 455.25 L 863.890625 10.25 " transform="matrix(2, 0, 0, -2, 0, 1080)"/>
<path fill="none" stroke-width="1" stroke-linecap="butt" stroke-linejoin="round" stroke="rgb(0%, 0%, 0%)" stroke-opacity="1" stroke-miterlimit="10" d="M 528.189453 454.75 L 957.730469 454.75 " transform="matrix(2, 0, 0, -2, 0, 1080)"/>
<path fill="none" stroke-width="1" stroke-linecap="butt" stroke-linejoin="round" stroke="rgb(0%, 0%, 0%)" stroke-opacity="1" stroke-miterlimit="10" d="M 528.189453 368.349609 L 957.730469 368.349609 " transform="matrix(2, 0, 0, -2, 0, 1080)"/>
<path fill="none" stroke-width="1" stroke-linecap="butt" stroke-linejoin="round" stroke="rgb(0%, 0%, 0%)" stroke-opacity="1" stroke-miterlimit="10" d="M 528.189453 281.949219 L 864.390625 281.949219 " transform="matrix(2, 0, 0, -2, 0, 1080)"/>
<path fill="none" stroke-width="1" stroke-linecap="butt" stroke-linejoin="round" stroke="rgb(0%, 0%, 0%)" stroke-opacity="1" stroke-miterlimit="10" d="M 528.189453 178.75 L 957.730469 178.75 " transform="matrix(2, 0, 0, -2, 0, 1080)"/>
<path fill="none" stroke-width="1" stroke-linecap="butt" stroke-linejoin="round" stroke="rgb(0%, 0%, 0%)" stroke-opacity="1" stroke-miterlimit="10" d="M 528.189453 92.349609 L 864.390625 92.349609 " transform="matrix(2, 0, 0, -2, 0, 1080)"/>
<path fill="none" stroke-width="0.5" stroke-linecap="butt" stroke-linejoin="miter" stroke="rgb(0%, 0%, 0%)" stroke-opacity="1" stroke-miterlimit="8" d="M 528.689453 525.419922 L 528.689453 455.25 " transform="matrix(2, 0, 0, -2, 0, 1080)"/>
<path fill="none" stroke-width="1" stroke-linecap="butt" stroke-linejoin="round" stroke="rgb(0%, 0%, 0%)" stroke-opacity="1" stroke-miterlimit="8" d="M 528.689453 455.25 L 528.689453 10.25 " transform="matrix(2, 0, 0, -2, 0, 1080)"/>
<path fill="none" stroke-width="0.5" stroke-linecap="butt" stroke-linejoin="miter" stroke="rgb(0%, 0%, 0%)" stroke-opacity="1" stroke-miterlimit="8" d="M 957.230469 525.419922 L 957.230469 455.25 " transform="matrix(2, 0, 0, -2, 0, 1080)"/>
<path fill="none" stroke-width="1" stroke-linecap="butt" stroke-linejoin="round" stroke="rgb(0%, 0%, 0%)" stroke-opacity="1" stroke-miterlimit="8" d="M 957.230469 455.25 L 957.230469 10.25 " transform="matrix(2, 0, 0, -2, 0, 1080)"/>
<path fill="none" stroke-width="0.5" stroke-linecap="butt" stroke-linejoin="miter" stroke="rgb(0%, 0%, 0%)" stroke-opacity="1" stroke-miterlimit="8" d="M 528.439453 525.169922 L 957.480469 525.169922 " transform="matrix(2, 0, 0, -2, 0, 1080)"/>
<path fill="none" stroke-width="1" stroke-linecap="butt" stroke-linejoin="round" stroke="rgb(0%, 0%, 0%)" stroke-opacity="1" stroke-miterlimit="8" d="M 528.189453 10.75 L 957.730469 10.75 " transform="matrix(2, 0, 0, -2, 0, 1080)"/>
<path fill-rule="evenodd" fill="rgb(35.699463%, 60.798645%, 83.499146%)" fill-opacity="1" d="M 267 274.039062 L 900 274.039062 L 900 173.238281 L 267 173.238281 Z M 267 274.039062 "/>
<path fill-rule="evenodd" fill="rgb(82.398987%, 87.098694%, 93.699646%)" fill-opacity="1" d="M 267 326.960938 L 686.199219 326.960938 L 686.199219 274.042969 L 267 274.042969 Z M 267 326.960938 "/>
<path fill-rule="evenodd" fill="rgb(82.398987%, 87.098694%, 93.699646%)" fill-opacity="1" d="M 686.199219 326.960938 L 900 326.960938 L 900 274.042969 L 686.199219 274.042969 Z M 686.199219 326.960938 "/>
<path fill-rule="evenodd" fill="rgb(91.799927%, 93.699646%, 96.899414%)" fill-opacity="1" d="M 267 379.878906 L 686.199219 379.878906 L 686.199219 326.960938 L 267 326.960938 Z M 267 379.878906 "/>
<path fill-rule="evenodd" fill="rgb(91.799927%, 93.699646%, 96.899414%)" fill-opacity="1" d="M 686.199219 379.878906 L 900 379.878906 L 900 326.960938 L 686.199219 326.960938 Z M 686.199219 379.878906 "/>
<path fill-rule="evenodd" fill="rgb(82.398987%, 87.098694%, 93.699646%)" fill-opacity="1" d="M 267 453.820312 L 686.199219 453.820312 L 686.199219 379.878906 L 267 379.878906 Z M 267 453.820312 "/>
<path fill-rule="evenodd" fill="rgb(82.398987%, 87.098694%, 93.699646%)" fill-opacity="1" d="M 686.199219 453.820312 L 900 453.820312 L 900 379.878906 L 686.199219 379.878906 Z M 686.199219 453.820312 "/>
<path fill-rule="evenodd" fill="rgb(91.799927%, 93.699646%, 96.899414%)" fill-opacity="1" d="M 267 527.761719 L 686.199219 527.761719 L 686.199219 453.820312 L 267 453.820312 Z M 267 527.761719 "/>
<path fill-rule="evenodd" fill="rgb(91.799927%, 93.699646%, 96.899414%)" fill-opacity="1" d="M 686.199219 527.761719 L 900 527.761719 L 900 453.820312 L 686.199219 453.820312 Z M 686.199219 527.761719 "/>
<path fill-rule="evenodd" fill="rgb(82.398987%, 87.098694%, 93.699646%)" fill-opacity="1" d="M 267 576.660156 L 686.199219 576.660156 L 686.199219 527.75 L 267 527.75 Z M 267 576.660156 "/>
<path fill-rule="evenodd" fill="rgb(82.398987%, 87.098694%, 93.699646%)" fill-opacity="1" d="M 686.199219 576.660156 L 900 576.660156 L 900 527.75 L 686.199219 527.75 Z M 686.199219 576.660156 "/>
<path fill-rule="evenodd" fill="rgb(91.799927%, 93.699646%, 96.899414%)" fill-opacity="1" d="M 267 650.601562 L 686.199219 650.601562 L 686.199219 576.660156 L 267 576.660156 Z M 267 650.601562 "/>
<path fill-rule="evenodd" fill="rgb(91.799927%, 93.699646%, 96.899414%)" fill-opacity="1" d="M 686.199219 650.601562 L 900 650.601562 L 900 576.660156 L 686.199219 576.660156 Z M 686.199219 650.601562 "/>
<path fill="none" stroke-width="1" stroke-linecap="butt" stroke-linejoin="round" stroke="rgb(100%, 100%, 100%)" stroke-opacity="1" stroke-miterlimit="8" d="M 343.099609 404.480469 L 343.099609 214.199219 " transform="matrix(2, 0, 0, -2, 0, 1080)"/>
<path fill="none" stroke-width="3" stroke-linecap="butt" stroke-linejoin="round" stroke="rgb(100%, 100%, 100%)" stroke-opacity="1" stroke-miterlimit="8" d="M 133 402.980469 L 450.5 402.980469 " transform="matrix(2, 0, 0, -2, 0, 1080)"/>
<path fill="none" stroke-width="1" stroke-linecap="butt" stroke-linejoin="round" stroke="rgb(100%, 100%, 100%)" stroke-opacity="1" stroke-miterlimit="8" d="M 133 376.519531 L 450.5 376.519531 " transform="matrix(2, 0, 0, -2, 0, 1080)"/>
<path fill="none" stroke-width="1" stroke-linecap="butt" stroke-linejoin="round" stroke="rgb(100%, 100%, 100%)" stroke-opacity="1" stroke-miterlimit="8" d="M 133 350.060547 L 450.5 350.060547 " transform="matrix(2, 0, 0, -2, 0, 1080)"/>
<path fill="none" stroke-width="1" stroke-linecap="butt" stroke-linejoin="round" stroke="rgb(100%, 100%, 100%)" stroke-opacity="1" stroke-miterlimit="8" d="M 133 313.089844 L 450.5 313.089844 " transform="matrix(2, 0, 0, -2, 0, 1080)"/>
<path fill="none" stroke-width="1" stroke-linecap="butt" stroke-linejoin="round" stroke="rgb(100%, 100%, 100%)" stroke-opacity="1" stroke-miterlimit="8" d="M 133 276.119141 L 450.5 276.119141 " transform="matrix(2, 0, 0, -2, 0, 1080)"/>
<path fill="none" stroke-width="1" stroke-linecap="butt" stroke-linejoin="round" stroke="rgb(100%, 100%, 100%)" stroke-opacity="1" stroke-miterlimit="8" d="M 133 251.669922 L 450.5 251.669922 " transform="matrix(2, 0, 0, -2, 0, 1080)"/>
<path fill="none" stroke-width="1" stroke-linecap="butt" stroke-linejoin="round" stroke="rgb(100%, 100%, 100%)" stroke-opacity="1" stroke-miterlimit="8" d="M 133.5 453.880859 L 133.5 214.199219 " transform="matrix(2, 0, 0, -2, 0, 1080)"/>
<path fill="none" stroke-width="1" stroke-linecap="butt" stroke-linejoin="round" stroke="rgb(100%, 100%, 100%)" stroke-opacity="1" stroke-miterlimit="8" d="M 450 453.880859 L 450 214.199219 " transform="matrix(2, 0, 0, -2, 0, 1080)"/>
<path fill="none" stroke-width="1" stroke-linecap="butt" stroke-linejoin="round" stroke="rgb(100%, 100%, 100%)" stroke-opacity="1" stroke-miterlimit="8" d="M 133 453.380859 L 450.5 453.380859 " transform="matrix(2, 0, 0, -2, 0, 1080)"/>
<path fill="none" stroke-width="1" stroke-linecap="butt" stroke-linejoin="round" stroke="rgb(100%, 100%, 100%)" stroke-opacity="1" stroke-miterlimit="8" d="M 133 214.699219 L 450.5 214.699219 " transform="matrix(2, 0, 0, -2, 0, 1080)"/>
<path fill-rule="evenodd" fill="rgb(100%, 0%, 0%)" fill-opacity="1" d="M 250.140625 999.417969 L 1021.5 999.417969 L 1021.5 1001.339844 L 250.140625 1001.339844 Z M 250.140625 999.417969 "/>
<path fill-rule="evenodd" fill="rgb(100%, 0%, 0%)" fill-opacity="1" d="M 250.140625 1033.019531 L 1021.5 1033.019531 L 1021.5 1034.9375 L 250.140625 1034.9375 Z M 250.140625 1033.019531 "/>
<path fill-rule="evenodd" fill="rgb(100%, 0%, 0%)" fill-opacity="1" d="M 250.140625 1066.617188 L 857.578125 1066.617188 L 857.578125 1068.539062 L 250.140625 1068.539062 Z M 250.140625 1066.617188 "/>
<path fill-rule="evenodd" fill="rgb(0%, 0%, 0%)" fill-opacity="1" d="M 0 1080 L 0 0 L 222 0 L 222 1080 Z M 0 1080 "/>
</svg>
