<?xml version="1.0" encoding="UTF-8"?>
<svg xmlns="http://www.w3.org/2000/svg" xmlns:xlink="http://www.w3.org/1999/xlink" width="1920" height="1080" viewBox="0 0 1920 1080">
<rect x="-192" y="-108" width="2304" height="1296" fill="rgb(100%, 100%, 100%)" fill-opacity="1"/>
<path fill-rule="evenodd" fill="rgb(1.959229%, 38.798523%, 75.698853%)" fill-opacity="1" d="M 182.398438 341.261719 L 794.878906 341.261719 L 794.878906 344.859375 L 182.398438 344.859375 Z M 182.398438 341.261719 "/>
<path fill-rule="evenodd" fill="rgb(1.959229%, 38.798523%, 75.698853%)" fill-opacity="1" d="M 182.398438 414.941406 L 828.238281 414.941406 L 828.238281 418.539062 L 182.398438 418.539062 Z M 182.398438 414.941406 "/>
<path fill-rule="evenodd" fill="rgb(1.959229%, 38.798523%, 75.698853%)" fill-opacity="1" d="M 182.398438 488.859375 L 1260 488.859375 L 1260 492.460938 L 182.398438 492.460938 Z M 182.398438 488.859375 "/>
<path fill-rule="evenodd" fill="rgb(1.959229%, 38.798523%, 75.698853%)" fill-opacity="1" d="M 182.398438 562.539062 L 722.398438 562.539062 L 722.398438 566.140625 L 182.398438 566.140625 Z M 182.398438 562.539062 "/>
<path fill-rule="evenodd" fill="rgb(1.959229%, 38.798523%, 75.698853%)" fill-opacity="1" d="M 182.398438 636.21875 L 1013.039062 636.21875 L 1013.039062 639.820312 L 182.398438 639.820312 Z M 182.398438 636.21875 "/>
<path fill-rule="evenodd" fill="rgb(1.959229%, 38.798523%, 75.698853%)" fill-opacity="1" d="M 182.398438 713.738281 L 565.199219 713.738281 L 565.199219 710.140625 L 182.398438 710.140625 Z M 182.398438 713.738281 "/>
<path fill-rule="evenodd" fill="rgb(1.959229%, 38.798523%, 75.698853%)" fill-opacity="1" d="M 182.398438 787.421875 L 577.679688 787.421875 L 577.679688 783.820312 L 182.398438 783.820312 Z M 182.398438 787.421875 "/>
<path fill-rule="evenodd" fill="rgb(1.959229%, 38.798523%, 75.698853%)" fill-opacity="1" d="M 182.398438 857.5 L 904.078125 857.5 L 904.078125 861.101562 L 182.398438 861.101562 Z M 182.398438 857.5 "/>
<path fill-rule="evenodd" fill="rgb(1.959229%, 38.798523%, 75.698853%)" fill-opacity="1" d="M 182.398438 931.421875 L 953.519531 931.421875 L 953.519531 935.019531 L 182.398438 935.019531 Z M 182.398438 931.421875 "/>
<path fill-rule="evenodd" fill="rgb(1.959229%, 38.798523%, 75.698853%)" fill-opacity="1" d="M 182.398438 1005.101562 L 944.398438 1005.101562 L 944.398438 1008.699219 L 182.398438 1008.699219 Z M 182.398438 1005.101562 "/>
</svg>
