<?xml version="1.0" encoding="UTF-8"?>
<svg xmlns="http://www.w3.org/2000/svg" xmlns:xlink="http://www.w3.org/1999/xlink" width="1920" height="1080" viewBox="0 0 1920 1080">
<rect x="-192" y="-108" width="2304" height="1296" fill="rgb(100%, 100%, 100%)" fill-opacity="1"/>
<path fill-rule="evenodd" fill="rgb(0%, 0%, 0%)" fill-opacity="1" d="M 0 1080 L 0 0 L 222 0 L 222 1080 Z M 0 1080 "/>
<path fill-rule="evenodd" fill="rgb(35.699463%, 60.798645%, 83.499146%)" fill-opacity="1" d="M 269.238281 66 L 1867.359375 66 L 1867.359375 7.601562 L 269.238281 7.601562 Z M 269.238281 66 "/>
<path fill-rule="evenodd" fill="rgb(0%, 0%, 0%)" fill-opacity="1" d="M 269.238281 124.398438 L 1044.941406 124.398438 L 1044.941406 66 L 269.238281 66 Z M 269.238281 124.398438 "/>
<path fill-rule="evenodd" fill="rgb(0%, 0%, 0%)" fill-opacity="1" d="M 1044.921875 124.398438 L 1393.539062 124.398438 L 1393.539062 66 L 1044.921875 66 Z M 1044.921875 124.398438 "/>
<path fill-rule="evenodd" fill="rgb(0%, 0%, 0%)" fill-opacity="1" d="M 1393.539062 124.398438 L 1867.339844 124.398438 L 1867.339844 66 L 1393.539062 66 Z M 1393.539062 124.398438 "/>
<path fill-rule="evenodd" fill="rgb(91.799927%, 93.699646%, 96.899414%)" fill-opacity="1" d="M 269.238281 182.800781 L 1044.941406 182.800781 L 1044.941406 124.398438 L 269.238281 124.398438 Z M 269.238281 182.800781 "/>
<path fill-rule="evenodd" fill="rgb(91.799927%, 93.699646%, 96.899414%)" fill-opacity="1" d="M 1044.921875 182.800781 L 1393.539062 182.800781 L 1393.539062 124.398438 L 1044.921875 124.398438 Z M 1044.921875 182.800781 "/>
<path fill-rule="evenodd" fill="rgb(91.799927%, 93.699646%, 96.899414%)" fill-opacity="1" d="M 1393.539062 182.800781 L 1867.339844 182.800781 L 1867.339844 124.398438 L 1393.539062 124.398438 Z M 1393.539062 182.800781 "/>
<path fill-rule="evenodd" fill="rgb(82.398987%, 87.098694%, 93.699646%)" fill-opacity="1" d="M 269.238281 241.199219 L 1044.941406 241.199219 L 1044.941406 182.800781 L 269.238281 182.800781 Z M 269.238281 241.199219 "/>
<path fill-rule="evenodd" fill="rgb(82.398987%, 87.098694%, 93.699646%)" fill-opacity="1" d="M 1044.921875 241.199219 L 1393.539062 241.199219 L 1393.539062 182.800781 L 1044.921875 182.800781 Z M 1044.921875 241.199219 "/>
<path fill-rule="evenodd" fill="rgb(82.398987%, 87.098694%, 93.699646%)" fill-opacity="1" d="M 1393.539062 241.199219 L 1867.339844 241.199219 L 1867.339844 182.800781 L 1393.539062 182.800781 Z M 1393.539062 241.199219 "/>
<path fill-rule="evenodd" fill="rgb(91.799927%, 93.699646%, 96.899414%)" fill-opacity="1" d="M 269.238281 299.601562 L 1044.941406 299.601562 L 1044.941406 241.199219 L 269.238281 241.199219 Z M 269.238281 299.601562 "/>
<path fill-rule="evenodd" fill="rgb(91.799927%, 93.699646%, 96.899414%)" fill-opacity="1" d="M 1044.921875 299.601562 L 1393.539062 299.601562 L 1393.539062 241.199219 L 1044.921875 241.199219 Z M 1044.921875 299.601562 "/>
<path fill-rule="evenodd" fill="rgb(91.799927%, 93.699646%, 96.899414%)" fill-opacity="1" d="M 1393.539062 299.601562 L 1867.339844 299.601562 L 1867.339844 241.199219 L 1393.539062 241.199219 Z M 1393.539062 299.601562 "/>
<path fill-rule="evenodd" fill="rgb(82.398987%, 87.098694%, 93.699646%)" fill-opacity="1" d="M 269.238281 358 L 1044.941406 358 L 1044.941406 299.601562 L 269.238281 299.601562 Z M 269.238281 358 "/>
<path fill-rule="evenodd" fill="rgb(82.398987%, 87.098694%, 93.699646%)" fill-opacity="1" d="M 1044.921875 358 L 1393.539062 358 L 1393.539062 299.601562 L 1044.921875 299.601562 Z M 1044.921875 358 "/>
<path fill-rule="evenodd" fill="rgb(82.398987%, 87.098694%, 93.699646%)" fill-opacity="1" d="M 1393.539062 358 L 1867.339844 358 L 1867.339844 299.601562 L 1393.539062 299.601562 Z M 1393.539062 358 "/>
<path fill-rule="evenodd" fill="rgb(91.799927%, 93.699646%, 96.899414%)" fill-opacity="1" d="M 269.238281 416.398438 L 1044.941406 416.398438 L 1044.941406 358 L 269.238281 358 Z M 269.238281 416.398438 "/>
<path fill-rule="evenodd" fill="rgb(91.799927%, 93.699646%, 96.899414%)" fill-opacity="1" d="M 1044.921875 416.398438 L 1393.539062 416.398438 L 1393.539062 358 L 1044.921875 358 Z M 1044.921875 416.398438 "/>
<path fill-rule="evenodd" fill="rgb(91.799927%, 93.699646%, 96.899414%)" fill-opacity="1" d="M 1393.539062 416.398438 L 1867.339844 416.398438 L 1867.339844 358 L 1393.539062 358 Z M 1393.539062 416.398438 "/>
<path fill-rule="evenodd" fill="rgb(82.398987%, 87.098694%, 93.699646%)" fill-opacity="1" d="M 269.238281 469.199219 L 1044.941406 469.199219 L 1044.941406 416.398438 L 269.238281 416.398438 Z M 269.238281 469.199219 "/>
<path fill-rule="evenodd" fill="rgb(82.398987%, 87.098694%, 93.699646%)" fill-opacity="1" d="M 1044.921875 469.199219 L 1393.539062 469.199219 L 1393.539062 416.398438 L 1044.921875 416.398438 Z M 1044.921875 469.199219 "/>
<path fill-rule="evenodd" fill="rgb(82.398987%, 87.098694%, 93.699646%)" fill-opacity="1" d="M 1393.539062 469.199219 L 1867.339844 469.199219 L 1867.339844 416.398438 L 1393.539062 416.398438 Z M 1393.539062 469.199219 "/>
<path fill-rule="evenodd" fill="rgb(91.799927%, 93.699646%, 96.899414%)" fill-opacity="1" d="M 269.238281 522 L 1044.941406 522 L 1044.941406 469.199219 L 269.238281 469.199219 Z M 269.238281 522 "/>
<path fill-rule="evenodd" fill="rgb(91.799927%, 93.699646%, 96.899414%)" fill-opacity="1" d="M 1044.921875 522 L 1393.539062 522 L 1393.539062 469.199219 L 1044.921875 469.199219 Z M 1044.921875 522 "/>
<path fill-rule="evenodd" fill="rgb(91.799927%, 93.699646%, 96.899414%)" fill-opacity="1" d="M 1393.539062 522 L 1867.339844 522 L 1867.339844 469.199219 L 1393.539062 469.199219 Z M 1393.539062 522 "/>
<path fill-rule="evenodd" fill="rgb(82.398987%, 87.098694%, 93.699646%)" fill-opacity="1" d="M 269.238281 574.800781 L 1044.941406 574.800781 L 1044.941406 522 L 269.238281 522 Z M 269.238281 574.800781 "/>
<path fill-rule="evenodd" fill="rgb(82.398987%, 87.098694%, 93.699646%)" fill-opacity="1" d="M 1044.921875 574.800781 L 1393.539062 574.800781 L 1393.539062 522 L 1044.921875 522 Z M 1044.921875 574.800781 "/>
<path fill-rule="evenodd" fill="rgb(82.398987%, 87.098694%, 93.699646%)" fill-opacity="1" d="M 1393.539062 574.800781 L 1867.339844 574.800781 L 1867.339844 522 L 1393.539062 522 Z M 1393.539062 574.800781 "/>
<path fill-rule="evenodd" fill="rgb(91.799927%, 93.699646%, 96.899414%)" fill-opacity="1" d="M 269.238281 666 L 1044.941406 666 L 1044.941406 574.800781 L 269.238281 574.800781 Z M 269.238281 666 "/>
<path fill-rule="evenodd" fill="rgb(91.799927%, 93.699646%, 96.899414%)" fill-opacity="1" d="M 1044.921875 666 L 1393.539062 666 L 1393.539062 574.800781 L 1044.921875 574.800781 Z M 1044.921875 666 "/>
<path fill-rule="evenodd" fill="rgb(91.799927%, 93.699646%, 96.899414%)" fill-opacity="1" d="M 1393.539062 666 L 1867.339844 666 L 1867.339844 574.800781 L 1393.539062 574.800781 Z M 1393.539062 666 "/>
<path fill-rule="evenodd" fill="rgb(82.398987%, 87.098694%, 93.699646%)" fill-opacity="1" d="M 269.238281 718.800781 L 1044.941406 718.800781 L 1044.941406 666 L 269.238281 666 Z M 269.238281 718.800781 "/>
<path fill-rule="evenodd" fill="rgb(82.398987%, 87.098694%, 93.699646%)" fill-opacity="1" d="M 1044.921875 718.800781 L 1393.539062 718.800781 L 1393.539062 666 L 1044.921875 666 Z M 1044.921875 718.800781 "/>
<path fill-rule="evenodd" fill="rgb(82.398987%, 87.098694%, 93.699646%)" fill-opacity="1" d="M 1393.539062 718.800781 L 1867.339844 718.800781 L 1867.339844 666 L 1393.539062 666 Z M 1393.539062 718.800781 "/>
<path fill-rule="evenodd" fill="rgb(91.799927%, 93.699646%, 96.899414%)" fill-opacity="1" d="M 269.238281 771.601562 L 1044.941406 771.601562 L 1044.941406 718.800781 L 269.238281 718.800781 Z M 269.238281 771.601562 "/>
<path fill-rule="evenodd" fill="rgb(91.799927%, 93.699646%, 96.899414%)" fill-opacity="1" d="M 1044.921875 771.601562 L 1393.539062 771.601562 L 1393.539062 718.800781 L 1044.921875 718.800781 Z M 1044.921875 771.601562 "/>
<path fill-rule="evenodd" fill="rgb(91.799927%, 93.699646%, 96.899414%)" fill-opacity="1" d="M 1393.539062 771.601562 L 1867.339844 771.601562 L 1867.339844 718.800781 L 1393.539062 718.800781 Z M 1393.539062 771.601562 "/>
<path fill-rule="evenodd" fill="rgb(82.398987%, 87.098694%, 93.699646%)" fill-opacity="1" d="M 269.238281 824.398438 L 1044.941406 824.398438 L 1044.941406 771.601562 L 269.238281 771.601562 Z M 269.238281 824.398438 "/>
<path fill-rule="evenodd" fill="rgb(82.398987%, 87.098694%, 93.699646%)" fill-opacity="1" d="M 1044.921875 824.398438 L 1393.539062 824.398438 L 1393.539062 771.601562 L 1044.921875 771.601562 Z M 1044.921875 824.398438 "/>
<path fill-rule="evenodd" fill="rgb(82.398987%, 87.098694%, 93.699646%)" fill-opacity="1" d="M 1393.539062 824.398438 L 1867.339844 824.398438 L 1867.339844 771.601562 L 1393.539062 771.601562 Z M 1393.539062 824.398438 "/>
<path fill-rule="evenodd" fill="rgb(91.799927%, 93.699646%, 96.899414%)" fill-opacity="1" d="M 269.238281 915.609375 L 1044.941406 915.609375 L 1044.941406 824.40625 L 269.238281 824.40625 Z M 269.238281 915.609375 "/>
<path fill-rule="evenodd" fill="rgb(91.799927%, 93.699646%, 96.899414%)" fill-opacity="1" d="M 1044.921875 915.609375 L 1393.539062 915.609375 L 1393.539062 824.40625 L 1044.921875 824.40625 Z M 1044.921875 915.609375 "/>
<path fill-rule="evenodd" fill="rgb(91.799927%, 93.699646%, 96.899414%)" fill-opacity="1" d="M 1393.539062 915.609375 L 1867.339844 915.609375 L 1867.339844 824.40625 L 1393.539062 824.40625 Z M 1393.539062 915.609375 "/>
<path fill="none" stroke-width="1" stroke-linecap="butt" stroke-linejoin="round" stroke="rgb(100%, 100%, 100%)" stroke-opacity="1" stroke-miterlimit="10" d="M 522.460938 508.5 L 522.460938 81.695312 " transform="matrix(2, 0, 0, -2, 0, 1080)"/>
<path fill="none" stroke-width="1" stroke-linecap="butt" stroke-linejoin="round" stroke="rgb(100%, 100%, 100%)" stroke-opacity="1" stroke-miterlimit="10" d="M 696.769531 508.5 L 696.769531 81.695312 " transform="matrix(2, 0, 0, -2, 0, 1080)"/>
<path fill="none" stroke-width="3" stroke-linecap="butt" stroke-linejoin="round" stroke="rgb(100%, 100%, 100%)" stroke-opacity="1" stroke-miterlimit="10" d="M 134.119141 507 L 934.179688 507 " transform="matrix(2, 0, 0, -2, 0, 1080)"/>
<path fill="none" stroke-width="1" stroke-linecap="butt" stroke-linejoin="round" stroke="rgb(100%, 100%, 100%)" stroke-opacity="1" stroke-miterlimit="10" d="M 134.119141 477.800781 L 934.179688 477.800781 " transform="matrix(2, 0, 0, -2, 0, 1080)"/>
<path fill="none" stroke-width="1" stroke-linecap="butt" stroke-linejoin="round" stroke="rgb(100%, 100%, 100%)" stroke-opacity="1" stroke-miterlimit="10" d="M 134.119141 448.599609 L 934.179688 448.599609 " transform="matrix(2, 0, 0, -2, 0, 1080)"/>
<path fill="none" stroke-width="1" stroke-linecap="butt" stroke-linejoin="round" stroke="rgb(100%, 100%, 100%)" stroke-opacity="1" stroke-miterlimit="10" d="M 134.119141 419.400391 L 934.179688 419.400391 " transform="matrix(2, 0, 0, -2, 0, 1080)"/>
<path fill="none" stroke-width="1" stroke-linecap="butt" stroke-linejoin="round" stroke="rgb(100%, 100%, 100%)" stroke-opacity="1" stroke-miterlimit="10" d="M 134.119141 390.199219 L 934.179688 390.199219 " transform="matrix(2, 0, 0, -2, 0, 1080)"/>
<path fill="none" stroke-width="1" stroke-linecap="butt" stroke-linejoin="round" stroke="rgb(100%, 100%, 100%)" stroke-opacity="1" stroke-miterlimit="10" d="M 134.119141 361 L 934.179688 361 " transform="matrix(2, 0, 0, -2, 0, 1080)"/>
<path fill="none" stroke-width="1" stroke-linecap="butt" stroke-linejoin="round" stroke="rgb(100%, 100%, 100%)" stroke-opacity="1" stroke-miterlimit="10" d="M 134.119141 331.800781 L 934.179688 331.800781 " transform="matrix(2, 0, 0, -2, 0, 1080)"/>
<path fill="none" stroke-width="1" stroke-linecap="butt" stroke-linejoin="round" stroke="rgb(100%, 100%, 100%)" stroke-opacity="1" stroke-miterlimit="10" d="M 134.119141 305.400391 L 934.179688 305.400391 " transform="matrix(2, 0, 0, -2, 0, 1080)"/>
<path fill="none" stroke-width="1" stroke-linecap="butt" stroke-linejoin="round" stroke="rgb(100%, 100%, 100%)" stroke-opacity="1" stroke-miterlimit="10" d="M 134.119141 279 L 934.179688 279 " transform="matrix(2, 0, 0, -2, 0, 1080)"/>
<path fill="none" stroke-width="1" stroke-linecap="butt" stroke-linejoin="round" stroke="rgb(100%, 100%, 100%)" stroke-opacity="1" stroke-miterlimit="10" d="M 134.119141 252.599609 L 934.179688 252.599609 " transform="matrix(2, 0, 0, -2, 0, 1080)"/>
<path fill="none" stroke-width="1" stroke-linecap="butt" stroke-linejoin="round" stroke="rgb(100%, 100%, 100%)" stroke-opacity="1" stroke-miterlimit="10" d="M 134.119141 207 L 934.179688 207 " transform="matrix(2, 0, 0, -2, 0, 1080)"/>
<path fill="none" stroke-width="1" stroke-linecap="butt" stroke-linejoin="round" stroke="rgb(100%, 100%, 100%)" stroke-opacity="1" stroke-miterlimit="10" d="M 134.119141 180.599609 L 934.179688 180.599609 " transform="matrix(2, 0, 0, -2, 0, 1080)"/>
<path fill="none" stroke-width="1" stroke-linecap="butt" stroke-linejoin="round" stroke="rgb(100%, 100%, 100%)" stroke-opacity="1" stroke-miterlimit="10" d="M 134.119141 154.199219 L 934.179688 154.199219 " transform="matrix(2, 0, 0, -2, 0, 1080)"/>
<path fill="none" stroke-width="1" stroke-linecap="butt" stroke-linejoin="round" stroke="rgb(100%, 100%, 100%)" stroke-opacity="1" stroke-miterlimit="10" d="M 134.119141 127.800781 L 934.179688 127.800781 " transform="matrix(2, 0, 0, -2, 0, 1080)"/>
<path fill="none" stroke-width="1" stroke-linecap="butt" stroke-linejoin="round" stroke="rgb(100%, 100%, 100%)" stroke-opacity="1" stroke-miterlimit="10" d="M 134.619141 536.699219 L 134.619141 81.695312 " transform="matrix(2, 0, 0, -2, 0, 1080)"/>
<path fill="none" stroke-width="1" stroke-linecap="butt" stroke-linejoin="round" stroke="rgb(100%, 100%, 100%)" stroke-opacity="1" stroke-miterlimit="10" d="M 933.679688 536.699219 L 933.679688 81.695312 " transform="matrix(2, 0, 0, -2, 0, 1080)"/>
<path fill="none" stroke-width="1" stroke-linecap="butt" stroke-linejoin="round" stroke="rgb(100%, 100%, 100%)" stroke-opacity="1" stroke-miterlimit="10" d="M 134.119141 536.199219 L 934.179688 536.199219 " transform="matrix(2, 0, 0, -2, 0, 1080)"/>
<path fill="none" stroke-width="1" stroke-linecap="butt" stroke-linejoin="round" stroke="rgb(100%, 100%, 100%)" stroke-opacity="1" stroke-miterlimit="10" d="M 134.119141 82.195312 L 934.179688 82.195312 " transform="matrix(2, 0, 0, -2, 0, 1080)"/>
</svg>
