<?xml version="1.0" encoding="UTF-8"?>
<svg xmlns="http://www.w3.org/2000/svg" xmlns:xlink="http://www.w3.org/1999/xlink" width="1920" height="1080" viewBox="0 0 1920 1080">
<rect x="-192" y="-108" width="2304" height="1296" fill="rgb(100%, 100%, 100%)" fill-opacity="1"/>
<path fill-rule="evenodd" fill="rgb(1.959229%, 38.798523%, 75.698853%)" fill-opacity="1" d="M 182.398438 346.539062 L 794.878906 346.539062 L 794.878906 350.140625 L 182.398438 350.140625 Z M 182.398438 346.539062 "/>
<path fill-rule="evenodd" fill="rgb(1.959229%, 38.798523%, 75.698853%)" fill-opacity="1" d="M 182.398438 427.179688 L 828.238281 427.179688 L 828.238281 430.78125 L 182.398438 430.78125 Z M 182.398438 427.179688 "/>
<path fill-rule="evenodd" fill="rgb(1.959229%, 38.798523%, 75.698853%)" fill-opacity="1" d="M 182.398438 507.578125 L 1260 507.578125 L 1260 511.179688 L 182.398438 511.179688 Z M 182.398438 507.578125 "/>
<path fill-rule="evenodd" fill="rgb(1.959229%, 38.798523%, 75.698853%)" fill-opacity="1" d="M 182.398438 587.980469 L 722.398438 587.980469 L 722.398438 591.578125 L 182.398438 591.578125 Z M 182.398438 587.980469 "/>
<path fill-rule="evenodd" fill="rgb(1.959229%, 38.798523%, 75.698853%)" fill-opacity="1" d="M 182.398438 668.621094 L 1013.039062 668.621094 L 1013.039062 672.21875 L 182.398438 672.21875 Z M 182.398438 668.621094 "/>
<path fill-rule="evenodd" fill="rgb(1.959229%, 38.798523%, 75.698853%)" fill-opacity="1" d="M 182.398438 752.621094 L 578.398438 752.621094 L 578.398438 749.019531 L 182.398438 749.019531 Z M 182.398438 752.621094 "/>
<path fill-rule="evenodd" fill="rgb(1.959229%, 38.798523%, 75.698853%)" fill-opacity="1" d="M 182.398438 833.019531 L 577.679688 833.019531 L 577.679688 829.421875 L 182.398438 829.421875 Z M 182.398438 833.019531 "/>
<path fill-rule="evenodd" fill="rgb(1.959229%, 38.798523%, 75.698853%)" fill-opacity="1" d="M 182.398438 910.058594 L 904.078125 910.058594 L 904.078125 913.660156 L 182.398438 913.660156 Z M 182.398438 910.058594 "/>
<path fill-rule="evenodd" fill="rgb(1.959229%, 38.798523%, 75.698853%)" fill-opacity="1" d="M 182.398438 990.460938 L 953.519531 990.460938 L 953.519531 994.058594 L 182.398438 994.058594 Z M 182.398438 990.460938 "/>
</svg>
