<?xml version="1.0" encoding="UTF-8"?>
<svg xmlns="http://www.w3.org/2000/svg" xmlns:xlink="http://www.w3.org/1999/xlink" width="1920" height="1080" viewBox="0 0 1920 1080">
<rect x="-192" y="-108" width="2304" height="1296" fill="rgb(100%, 100%, 100%)" fill-opacity="1"/>
<path fill-rule="evenodd" fill="rgb(0%, 0%, 0%)" fill-opacity="1" d="M 0 1080 L 0 0 L 222 0 L 222 1080 Z M 0 1080 "/>
<path fill-rule="evenodd" fill="rgb(0%, 0%, 0%)" fill-opacity="1" d="M 1057.378906 170.5 L 1914.460938 170.5 L 1914.460938 29.664062 L 1057.378906 29.664062 Z M 1057.378906 170.5 "/>
<path fill-rule="evenodd" fill="rgb(98.399353%, 89.7995%, 83.898926%)" fill-opacity="1" d="M 1287.601562 343.300781 L 1511.320312 343.300781 L 1511.320312 170.5 L 1287.601562 170.5 Z M 1287.601562 343.300781 "/>
<path fill-rule="evenodd" fill="rgb(98.399353%, 89.7995%, 83.898926%)" fill-opacity="1" d="M 1511.320312 343.300781 L 1727.78125 343.300781 L 1727.78125 170.5 L 1511.320312 170.5 Z M 1511.320312 343.300781 "/>
<path fill-rule="evenodd" fill="rgb(74.099731%, 84.298706%, 93.299866%)" fill-opacity="1" d="M 1727.78125 343.300781 L 1914.453125 343.300781 L 1914.453125 170.5 L 1727.78125 170.5 Z M 1727.78125 343.300781 "/>
<path fill-rule="evenodd" fill="rgb(79.998779%, 59.999084%, 100%)" fill-opacity="1" d="M 1057.378906 516.101562 L 1287.601562 516.101562 L 1287.601562 343.300781 L 1057.378906 343.300781 Z M 1057.378906 516.101562 "/>
<path fill-rule="evenodd" fill="rgb(79.998779%, 59.999084%, 100%)" fill-opacity="1" d="M 1287.601562 516.101562 L 1511.320312 516.101562 L 1511.320312 343.300781 L 1287.601562 343.300781 Z M 1287.601562 516.101562 "/>
<path fill-rule="evenodd" fill="rgb(74.099731%, 84.298706%, 93.299866%)" fill-opacity="1" d="M 1727.78125 722.5 L 1914.453125 722.5 L 1914.453125 343.300781 L 1727.78125 343.300781 Z M 1727.78125 722.5 "/>
<path fill-rule="evenodd" fill="rgb(100%, 94.898987%, 79.998779%)" fill-opacity="1" d="M 1057.378906 722.5 L 1287.601562 722.5 L 1287.601562 516.101562 L 1057.378906 516.101562 Z M 1057.378906 722.5 "/>
<path fill-rule="evenodd" fill="rgb(100%, 94.898987%, 79.998779%)" fill-opacity="1" d="M 1287.601562 722.5 L 1511.320312 722.5 L 1511.320312 516.101562 L 1287.601562 516.101562 Z M 1287.601562 722.5 "/>
<path fill-rule="evenodd" fill="rgb(81.599426%, 80.799866%, 80.799866%)" fill-opacity="1" d="M 1511.320312 722.5 L 1727.78125 722.5 L 1727.78125 516.101562 L 1511.320312 516.101562 Z M 1511.320312 722.5 "/>
<path fill-rule="evenodd" fill="rgb(77.2995%, 87.799072%, 70.599365%)" fill-opacity="1" d="M 1057.378906 895.300781 L 1287.601562 895.300781 L 1287.601562 722.5 L 1057.378906 722.5 Z M 1057.378906 895.300781 "/>
<path fill-rule="evenodd" fill="rgb(77.2995%, 87.799072%, 70.599365%)" fill-opacity="1" d="M 1287.601562 895.300781 L 1511.320312 895.300781 L 1511.320312 722.5 L 1287.601562 722.5 Z M 1287.601562 895.300781 "/>
<path fill-rule="evenodd" fill="rgb(81.599426%, 80.799866%, 80.799866%)" fill-opacity="1" d="M 1511.320312 895.300781 L 1727.78125 895.300781 L 1727.78125 722.5 L 1511.320312 722.5 Z M 1511.320312 895.300781 "/>
<path fill-rule="evenodd" fill="rgb(100%, 75.299072%, 0%)" fill-opacity="1" d="M 1057.378906 1058.5 L 1511.320312 1058.5 L 1511.320312 895.300781 L 1057.378906 895.300781 Z M 1057.378906 1058.5 "/>
<path fill-rule="evenodd" fill="rgb(100%, 75.299072%, 0%)" fill-opacity="1" d="M 1511.320312 1058.5 L 1727.78125 1058.5 L 1727.78125 895.300781 L 1511.320312 895.300781 Z M 1511.320312 1058.5 "/>
<path fill="none" stroke-width="1" stroke-linecap="butt" stroke-linejoin="round" stroke="rgb(0%, 0%, 0%)" stroke-opacity="1" stroke-miterlimit="10" d="M 643.800781 455.25 L 643.800781 91.849609 " transform="matrix(2, 0, 0, -2, 0, 1080)"/>
<path fill="none" stroke-width="1" stroke-linecap="butt" stroke-linejoin="round" stroke="rgb(0%, 0%, 0%)" stroke-opacity="1" stroke-miterlimit="10" d="M 755.660156 455.25 L 755.660156 10.25 " transform="matrix(2, 0, 0, -2, 0, 1080)"/>
<path fill="none" stroke-width="1" stroke-linecap="butt" stroke-linejoin="round" stroke="rgb(0%, 0%, 0%)" stroke-opacity="1" stroke-miterlimit="10" d="M 863.890625 455.25 L 863.890625 10.25 " transform="matrix(2, 0, 0, -2, 0, 1080)"/>
<path fill="none" stroke-width="1" stroke-linecap="butt" stroke-linejoin="round" stroke="rgb(0%, 0%, 0%)" stroke-opacity="1" stroke-miterlimit="10" d="M 528.189453 454.75 L 957.730469 454.75 " transform="matrix(2, 0, 0, -2, 0, 1080)"/>
<path fill="none" stroke-width="1" stroke-linecap="butt" stroke-linejoin="round" stroke="rgb(0%, 0%, 0%)" stroke-opacity="1" stroke-miterlimit="10" d="M 528.189453 368.349609 L 957.730469 368.349609 " transform="matrix(2, 0, 0, -2, 0, 1080)"/>
<path fill="none" stroke-width="1" stroke-linecap="butt" stroke-linejoin="round" stroke="rgb(0%, 0%, 0%)" stroke-opacity="1" stroke-miterlimit="10" d="M 528.189453 281.949219 L 864.390625 281.949219 " transform="matrix(2, 0, 0, -2, 0, 1080)"/>
<path fill="none" stroke-width="1" stroke-linecap="butt" stroke-linejoin="round" stroke="rgb(0%, 0%, 0%)" stroke-opacity="1" stroke-miterlimit="10" d="M 528.189453 178.75 L 957.730469 178.75 " transform="matrix(2, 0, 0, -2, 0, 1080)"/>
<path fill="none" stroke-width="1" stroke-linecap="butt" stroke-linejoin="round" stroke="rgb(0%, 0%, 0%)" stroke-opacity="1" stroke-miterlimit="10" d="M 528.189453 92.349609 L 864.390625 92.349609 " transform="matrix(2, 0, 0, -2, 0, 1080)"/>
<path fill="none" stroke-width="0.5" stroke-linecap="butt" stroke-linejoin="miter" stroke="rgb(0%, 0%, 0%)" stroke-opacity="1" stroke-miterlimit="8" d="M 528.689453 525.419922 L 528.689453 455.25 " transform="matrix(2, 0, 0, -2, 0, 1080)"/>
<path fill="none" stroke-width="1" stroke-linecap="butt" stroke-linejoin="round" stroke="rgb(0%, 0%, 0%)" stroke-opacity="1" stroke-miterlimit="8" d="M 528.689453 455.25 L 528.689453 10.25 " transform="matrix(2, 0, 0, -2, 0, 1080)"/>
<path fill="none" stroke-width="0.5" stroke-linecap="butt" stroke-linejoin="miter" stroke="rgb(0%, 0%, 0%)" stroke-opacity="1" stroke-miterlimit="8" d="M 957.230469 525.419922 L 957.230469 455.25 " transform="matrix(2, 0, 0, -2, 0, 1080)"/>
<path fill="none" stroke-width="1" stroke-linecap="butt" stroke-linejoin="round" stroke="rgb(0%, 0%, 0%)" stroke-opacity="1" stroke-miterlimit="8" d="M 957.230469 455.25 L 957.230469 10.25 " transform="matrix(2, 0, 0, -2, 0, 1080)"/>
<path fill="none" stroke-width="0.5" stroke-linecap="butt" stroke-linejoin="miter" stroke="rgb(0%, 0%, 0%)" stroke-opacity="1" stroke-miterlimit="8" d="M 528.439453 525.169922 L 957.480469 525.169922 " transform="matrix(2, 0, 0, -2, 0, 1080)"/>
<path fill="none" stroke-width="1" stroke-linecap="butt" stroke-linejoin="round" stroke="rgb(0%, 0%, 0%)" stroke-opacity="1" stroke-miterlimit="8" d="M 528.189453 10.75 L 957.730469 10.75 " transform="matrix(2, 0, 0, -2, 0, 1080)"/>
<path fill-rule="evenodd" fill="rgb(35.699463%, 60.798645%, 83.499146%)" fill-opacity="1" d="M 247.238281 295.21875 L 880.238281 295.21875 L 880.238281 194.421875 L 247.238281 194.421875 Z M 247.238281 295.21875 "/>
<path fill-rule="evenodd" fill="rgb(82.398987%, 87.098694%, 93.699646%)" fill-opacity="1" d="M 247.238281 348.121094 L 666.441406 348.121094 L 666.441406 295.203125 L 247.238281 295.203125 Z M 247.238281 348.121094 "/>
<path fill-rule="evenodd" fill="rgb(82.398987%, 87.098694%, 93.699646%)" fill-opacity="1" d="M 666.441406 348.121094 L 880.238281 348.121094 L 880.238281 295.203125 L 666.441406 295.203125 Z M 666.441406 348.121094 "/>
<path fill-rule="evenodd" fill="rgb(91.799927%, 93.699646%, 96.899414%)" fill-opacity="1" d="M 247.238281 422.078125 L 666.441406 422.078125 L 666.441406 348.140625 L 247.238281 348.140625 Z M 247.238281 422.078125 "/>
<path fill-rule="evenodd" fill="rgb(91.799927%, 93.699646%, 96.899414%)" fill-opacity="1" d="M 666.441406 422.078125 L 880.238281 422.078125 L 880.238281 348.140625 L 666.441406 348.140625 Z M 666.441406 422.078125 "/>
<path fill-rule="evenodd" fill="rgb(82.398987%, 87.098694%, 93.699646%)" fill-opacity="1" d="M 247.238281 496.019531 L 666.441406 496.019531 L 666.441406 422.078125 L 247.238281 422.078125 Z M 247.238281 496.019531 "/>
<path fill-rule="evenodd" fill="rgb(82.398987%, 87.098694%, 93.699646%)" fill-opacity="1" d="M 666.441406 496.019531 L 880.238281 496.019531 L 880.238281 422.078125 L 666.441406 422.078125 Z M 666.441406 496.019531 "/>
<path fill-rule="evenodd" fill="rgb(91.799927%, 93.699646%, 96.899414%)" fill-opacity="1" d="M 247.238281 548.921875 L 666.441406 548.921875 L 666.441406 496.003906 L 247.238281 496.003906 Z M 247.238281 548.921875 "/>
<path fill-rule="evenodd" fill="rgb(91.799927%, 93.699646%, 96.899414%)" fill-opacity="1" d="M 666.441406 548.921875 L 880.238281 548.921875 L 880.238281 496.003906 L 666.441406 496.003906 Z M 666.441406 548.921875 "/>
<path fill-rule="evenodd" fill="rgb(82.398987%, 87.098694%, 93.699646%)" fill-opacity="1" d="M 247.238281 601.839844 L 666.441406 601.839844 L 666.441406 548.921875 L 247.238281 548.921875 Z M 247.238281 601.839844 "/>
<path fill-rule="evenodd" fill="rgb(82.398987%, 87.098694%, 93.699646%)" fill-opacity="1" d="M 666.441406 601.839844 L 880.238281 601.839844 L 880.238281 548.921875 L 666.441406 548.921875 Z M 666.441406 601.839844 "/>
<path fill-rule="evenodd" fill="rgb(91.799927%, 93.699646%, 96.899414%)" fill-opacity="1" d="M 247.238281 675.78125 L 666.441406 675.78125 L 666.441406 601.839844 L 247.238281 601.839844 Z M 247.238281 675.78125 "/>
<path fill-rule="evenodd" fill="rgb(91.799927%, 93.699646%, 96.899414%)" fill-opacity="1" d="M 666.441406 675.78125 L 880.238281 675.78125 L 880.238281 601.839844 L 666.441406 601.839844 Z M 666.441406 675.78125 "/>
<path fill-rule="evenodd" fill="rgb(82.398987%, 87.098694%, 93.699646%)" fill-opacity="1" d="M 247.238281 749.71875 L 666.441406 749.71875 L 666.441406 675.78125 L 247.238281 675.78125 Z M 247.238281 749.71875 "/>
<path fill-rule="evenodd" fill="rgb(82.398987%, 87.098694%, 93.699646%)" fill-opacity="1" d="M 666.441406 749.71875 L 880.238281 749.71875 L 880.238281 675.78125 L 666.441406 675.78125 Z M 666.441406 749.71875 "/>
<path fill="none" stroke-width="1" stroke-linecap="butt" stroke-linejoin="round" stroke="rgb(100%, 100%, 100%)" stroke-opacity="1" stroke-miterlimit="8" d="M 333.220703 393.890625 L 333.220703 164.640625 " transform="matrix(2, 0, 0, -2, 0, 1080)"/>
<path fill="none" stroke-width="3" stroke-linecap="butt" stroke-linejoin="round" stroke="rgb(100%, 100%, 100%)" stroke-opacity="1" stroke-miterlimit="8" d="M 123.119141 392.390625 L 440.619141 392.390625 " transform="matrix(2, 0, 0, -2, 0, 1080)"/>
<path fill="none" stroke-width="1" stroke-linecap="butt" stroke-linejoin="round" stroke="rgb(100%, 100%, 100%)" stroke-opacity="1" stroke-miterlimit="8" d="M 123.119141 365.939453 L 440.619141 365.939453 " transform="matrix(2, 0, 0, -2, 0, 1080)"/>
<path fill="none" stroke-width="1" stroke-linecap="butt" stroke-linejoin="round" stroke="rgb(100%, 100%, 100%)" stroke-opacity="1" stroke-miterlimit="8" d="M 123.119141 328.960938 L 440.619141 328.960938 " transform="matrix(2, 0, 0, -2, 0, 1080)"/>
<path fill="none" stroke-width="1" stroke-linecap="butt" stroke-linejoin="round" stroke="rgb(100%, 100%, 100%)" stroke-opacity="1" stroke-miterlimit="8" d="M 123.119141 291.990234 L 440.619141 291.990234 " transform="matrix(2, 0, 0, -2, 0, 1080)"/>
<path fill="none" stroke-width="1" stroke-linecap="butt" stroke-linejoin="round" stroke="rgb(100%, 100%, 100%)" stroke-opacity="1" stroke-miterlimit="8" d="M 123.119141 265.539062 L 440.619141 265.539062 " transform="matrix(2, 0, 0, -2, 0, 1080)"/>
<path fill="none" stroke-width="1" stroke-linecap="butt" stroke-linejoin="round" stroke="rgb(100%, 100%, 100%)" stroke-opacity="1" stroke-miterlimit="8" d="M 123.119141 239.080078 L 440.619141 239.080078 " transform="matrix(2, 0, 0, -2, 0, 1080)"/>
<path fill="none" stroke-width="1" stroke-linecap="butt" stroke-linejoin="round" stroke="rgb(100%, 100%, 100%)" stroke-opacity="1" stroke-miterlimit="8" d="M 123.119141 202.109375 L 440.619141 202.109375 " transform="matrix(2, 0, 0, -2, 0, 1080)"/>
<path fill="none" stroke-width="1" stroke-linecap="butt" stroke-linejoin="round" stroke="rgb(100%, 100%, 100%)" stroke-opacity="1" stroke-miterlimit="8" d="M 123.619141 443.289062 L 123.619141 164.640625 " transform="matrix(2, 0, 0, -2, 0, 1080)"/>
<path fill="none" stroke-width="1" stroke-linecap="butt" stroke-linejoin="round" stroke="rgb(100%, 100%, 100%)" stroke-opacity="1" stroke-miterlimit="8" d="M 440.119141 443.289062 L 440.119141 164.640625 " transform="matrix(2, 0, 0, -2, 0, 1080)"/>
<path fill="none" stroke-width="1" stroke-linecap="butt" stroke-linejoin="round" stroke="rgb(100%, 100%, 100%)" stroke-opacity="1" stroke-miterlimit="8" d="M 123.119141 442.789062 L 440.619141 442.789062 " transform="matrix(2, 0, 0, -2, 0, 1080)"/>
<path fill="none" stroke-width="1" stroke-linecap="butt" stroke-linejoin="round" stroke="rgb(100%, 100%, 100%)" stroke-opacity="1" stroke-miterlimit="8" d="M 123.119141 165.140625 L 440.619141 165.140625 " transform="matrix(2, 0, 0, -2, 0, 1080)"/>
<path fill-rule="evenodd" fill="rgb(100%, 0%, 0%)" fill-opacity="1" d="M 252.960938 977.914062 L 1024.320312 977.914062 L 1024.320312 979.835938 L 252.960938 979.835938 Z M 252.960938 977.914062 "/>
<path fill-rule="evenodd" fill="rgb(100%, 0%, 0%)" fill-opacity="1" d="M 252.960938 1011.515625 L 1024.320312 1011.515625 L 1024.320312 1013.4375 L 252.960938 1013.4375 Z M 252.960938 1011.515625 "/>
<path fill-rule="evenodd" fill="rgb(100%, 0%, 0%)" fill-opacity="1" d="M 252.960938 1045.117188 L 860.398438 1045.117188 L 860.398438 1047.035156 L 252.960938 1047.035156 Z M 252.960938 1045.117188 "/>
<path fill-rule="evenodd" fill="rgb(100%, 100%, 100%)" fill-opacity="1" stroke-width="4.8" stroke-linecap="butt" stroke-linejoin="round" stroke="rgb(0%, 0%, 0%)" stroke-opacity="1" stroke-miterlimit="8" d="M 117 477.599609 L 452.400391 477.599609 L 452.400391 539.160156 L 117 539.160156 Z M 117 477.599609 " transform="matrix(2, 0, 0, -2, 0, 1080)"/>
</svg>
