<?xml version="1.0" encoding="UTF-8"?>
<svg xmlns="http://www.w3.org/2000/svg" xmlns:xlink="http://www.w3.org/1999/xlink" width="1920" height="1080" viewBox="0 0 1920 1080">
<rect x="-192" y="-108" width="2304" height="1296" fill="rgb(100%, 100%, 100%)" fill-opacity="1"/>
<path fill-rule="evenodd" fill="rgb(0%, 0%, 0%)" fill-opacity="1" d="M 0 1080 L 0 0 L 222 0 L 222 1080 Z M 0 1080 "/>
<path fill-rule="evenodd" fill="rgb(0%, 0%, 0%)" fill-opacity="1" d="M 236.078125 106.859375 L 1084.5 106.859375 L 1084.5 21.992188 L 236.078125 21.992188 Z M 236.078125 106.859375 "/>
<path fill-rule="evenodd" fill="rgb(0%, 0%, 0%)" fill-opacity="1" d="M 236.078125 183.660156 L 481.019531 183.660156 L 481.019531 106.859375 L 236.078125 106.859375 Z M 236.078125 183.660156 "/>
<path fill-rule="evenodd" fill="rgb(82.398987%, 87.098694%, 93.699646%)" fill-opacity="1" d="M 481.019531 477 L 649.507812 477 L 649.507812 106.878906 L 481.019531 106.878906 Z M 481.019531 477 "/>
<path fill-rule="evenodd" fill="rgb(82.398987%, 87.098694%, 93.699646%)" fill-opacity="1" d="M 649.5 183.660156 L 1084.5 183.660156 L 1084.5 106.859375 L 649.5 106.859375 Z M 649.5 183.660156 "/>
<path fill-rule="evenodd" fill="rgb(0%, 0%, 0%)" fill-opacity="1" d="M 236.078125 246.601562 L 481.019531 246.601562 L 481.019531 183.675781 L 236.078125 183.675781 Z M 236.078125 246.601562 "/>
<path fill-rule="evenodd" fill="rgb(91.799927%, 93.699646%, 96.899414%)" fill-opacity="1" d="M 649.5 246.601562 L 1084.5 246.601562 L 1084.5 183.675781 L 649.5 183.675781 Z M 649.5 246.601562 "/>
<path fill-rule="evenodd" fill="rgb(0%, 0%, 0%)" fill-opacity="1" d="M 236.078125 323.398438 L 481.019531 323.398438 L 481.019531 246.601562 L 236.078125 246.601562 Z M 236.078125 323.398438 "/>
<path fill-rule="evenodd" fill="rgb(82.398987%, 87.098694%, 93.699646%)" fill-opacity="1" d="M 649.5 323.398438 L 1084.5 323.398438 L 1084.5 246.601562 L 649.5 246.601562 Z M 649.5 323.398438 "/>
<path fill-rule="evenodd" fill="rgb(0%, 0%, 0%)" fill-opacity="1" d="M 236.078125 400.199219 L 481.019531 400.199219 L 481.019531 323.398438 L 236.078125 323.398438 Z M 236.078125 400.199219 "/>
<path fill-rule="evenodd" fill="rgb(91.799927%, 93.699646%, 96.899414%)" fill-opacity="1" d="M 649.5 400.199219 L 1084.5 400.199219 L 1084.5 323.398438 L 649.5 323.398438 Z M 649.5 400.199219 "/>
<path fill-rule="evenodd" fill="rgb(0%, 0%, 0%)" fill-opacity="1" d="M 236.078125 477 L 481.019531 477 L 481.019531 400.199219 L 236.078125 400.199219 Z M 236.078125 477 "/>
<path fill-rule="evenodd" fill="rgb(82.398987%, 87.098694%, 93.699646%)" fill-opacity="1" d="M 649.5 477 L 1084.5 477 L 1084.5 400.199219 L 649.5 400.199219 Z M 649.5 477 "/>
<path fill="none" stroke-width="1" stroke-linecap="butt" stroke-linejoin="round" stroke="rgb(100%, 100%, 100%)" stroke-opacity="1" stroke-miterlimit="10" d="M 240.509766 488.070312 L 240.509766 301 " transform="matrix(2, 0, 0, -2, 0, 1080)"/>
<path fill="none" stroke-width="1" stroke-linecap="butt" stroke-linejoin="round" stroke="rgb(100%, 100%, 100%)" stroke-opacity="1" stroke-miterlimit="10" d="M 324.75 488.070312 L 324.75 301 " transform="matrix(2, 0, 0, -2, 0, 1080)"/>
<path fill="none" stroke-width="3" stroke-linecap="butt" stroke-linejoin="round" stroke="rgb(100%, 100%, 100%)" stroke-opacity="1" stroke-miterlimit="10" d="M 117.539062 486.570312 L 542.75 486.570312 " transform="matrix(2, 0, 0, -2, 0, 1080)"/>
<path fill="none" stroke-width="1" stroke-linecap="butt" stroke-linejoin="round" stroke="rgb(100%, 100%, 100%)" stroke-opacity="1" stroke-miterlimit="10" d="M 117.539062 448.169922 L 241.009766 448.169922 " transform="matrix(2, 0, 0, -2, 0, 1080)"/>
<path fill="none" stroke-width="1" stroke-linecap="butt" stroke-linejoin="round" stroke="rgb(100%, 100%, 100%)" stroke-opacity="1" stroke-miterlimit="10" d="M 324.25 448.169922 L 542.75 448.169922 " transform="matrix(2, 0, 0, -2, 0, 1080)"/>
<path fill="none" stroke-width="1" stroke-linecap="butt" stroke-linejoin="round" stroke="rgb(100%, 100%, 100%)" stroke-opacity="1" stroke-miterlimit="10" d="M 117.539062 416.699219 L 241.009766 416.699219 " transform="matrix(2, 0, 0, -2, 0, 1080)"/>
<path fill="none" stroke-width="1" stroke-linecap="butt" stroke-linejoin="round" stroke="rgb(100%, 100%, 100%)" stroke-opacity="1" stroke-miterlimit="10" d="M 324.25 416.699219 L 542.75 416.699219 " transform="matrix(2, 0, 0, -2, 0, 1080)"/>
<path fill="none" stroke-width="1" stroke-linecap="butt" stroke-linejoin="round" stroke="rgb(100%, 100%, 100%)" stroke-opacity="1" stroke-miterlimit="10" d="M 117.539062 378.300781 L 241.009766 378.300781 " transform="matrix(2, 0, 0, -2, 0, 1080)"/>
<path fill="none" stroke-width="1" stroke-linecap="butt" stroke-linejoin="round" stroke="rgb(100%, 100%, 100%)" stroke-opacity="1" stroke-miterlimit="10" d="M 324.25 378.300781 L 542.75 378.300781 " transform="matrix(2, 0, 0, -2, 0, 1080)"/>
<path fill="none" stroke-width="1" stroke-linecap="butt" stroke-linejoin="round" stroke="rgb(100%, 100%, 100%)" stroke-opacity="1" stroke-miterlimit="10" d="M 117.539062 339.900391 L 241.009766 339.900391 " transform="matrix(2, 0, 0, -2, 0, 1080)"/>
<path fill="none" stroke-width="1" stroke-linecap="butt" stroke-linejoin="round" stroke="rgb(100%, 100%, 100%)" stroke-opacity="1" stroke-miterlimit="10" d="M 324.25 339.900391 L 542.75 339.900391 " transform="matrix(2, 0, 0, -2, 0, 1080)"/>
<path fill="none" stroke-width="1" stroke-linecap="butt" stroke-linejoin="round" stroke="rgb(100%, 100%, 100%)" stroke-opacity="1" stroke-miterlimit="10" d="M 118.039062 529.5 L 118.039062 301 " transform="matrix(2, 0, 0, -2, 0, 1080)"/>
<path fill="none" stroke-width="1" stroke-linecap="butt" stroke-linejoin="round" stroke="rgb(100%, 100%, 100%)" stroke-opacity="1" stroke-miterlimit="10" d="M 542.25 529.5 L 542.25 301 " transform="matrix(2, 0, 0, -2, 0, 1080)"/>
<path fill="none" stroke-width="1" stroke-linecap="butt" stroke-linejoin="round" stroke="rgb(100%, 100%, 100%)" stroke-opacity="1" stroke-miterlimit="10" d="M 117.539062 529 L 542.75 529 " transform="matrix(2, 0, 0, -2, 0, 1080)"/>
<path fill="none" stroke-width="1" stroke-linecap="butt" stroke-linejoin="round" stroke="rgb(100%, 100%, 100%)" stroke-opacity="1" stroke-miterlimit="10" d="M 117.539062 301.5 L 542.75 301.5 " transform="matrix(2, 0, 0, -2, 0, 1080)"/>
<path fill="none" stroke-width="1" stroke-linecap="butt" stroke-linejoin="round" stroke="rgb(35.699463%, 60.798645%, 83.499146%)" stroke-opacity="1" stroke-miterlimit="10" d="M 706.900391 497 L 706.900391 457.740234 " transform="matrix(2, 0, 0, -2, 0, 1080)"/>
<path fill="none" stroke-width="1" stroke-linecap="butt" stroke-linejoin="round" stroke="rgb(35.699463%, 60.798645%, 83.499146%)" stroke-opacity="1" stroke-miterlimit="10" d="M 706.900391 439.609375 L 706.900391 367.480469 " transform="matrix(2, 0, 0, -2, 0, 1080)"/>
<path fill="none" stroke-width="1" stroke-linecap="butt" stroke-linejoin="round" stroke="rgb(35.699463%, 60.798645%, 83.499146%)" stroke-opacity="1" stroke-miterlimit="10" d="M 706.900391 332.919922 L 706.900391 260.800781 " transform="matrix(2, 0, 0, -2, 0, 1080)"/>
<path fill="none" stroke-width="1" stroke-linecap="butt" stroke-linejoin="round" stroke="rgb(35.699463%, 60.798645%, 83.499146%)" stroke-opacity="1" stroke-miterlimit="10" d="M 567.869141 496.5 L 901.880859 496.5 " transform="matrix(2, 0, 0, -2, 0, 1080)"/>
<path fill="none" stroke-width="1" stroke-linecap="butt" stroke-linejoin="round" stroke="rgb(35.699463%, 60.798645%, 83.499146%)" stroke-opacity="1" stroke-miterlimit="10" d="M 567.869141 477.369141 L 901.880859 477.369141 " transform="matrix(2, 0, 0, -2, 0, 1080)"/>
<path fill="none" stroke-width="1" stroke-linecap="butt" stroke-linejoin="round" stroke="rgb(35.699463%, 60.798645%, 83.499146%)" stroke-opacity="1" stroke-miterlimit="10" d="M 567.869141 458.240234 L 901.880859 458.240234 " transform="matrix(2, 0, 0, -2, 0, 1080)"/>
<path fill="none" stroke-width="1" stroke-linecap="butt" stroke-linejoin="round" stroke="rgb(35.699463%, 60.798645%, 83.499146%)" stroke-opacity="1" stroke-miterlimit="10" d="M 567.869141 439.109375 L 901.880859 439.109375 " transform="matrix(2, 0, 0, -2, 0, 1080)"/>
<path fill="none" stroke-width="1" stroke-linecap="butt" stroke-linejoin="round" stroke="rgb(35.699463%, 60.798645%, 83.499146%)" stroke-opacity="1" stroke-miterlimit="10" d="M 567.869141 403.539062 L 901.880859 403.539062 " transform="matrix(2, 0, 0, -2, 0, 1080)"/>
<path fill="none" stroke-width="1" stroke-linecap="butt" stroke-linejoin="round" stroke="rgb(35.699463%, 60.798645%, 83.499146%)" stroke-opacity="1" stroke-miterlimit="10" d="M 567.869141 367.980469 L 901.880859 367.980469 " transform="matrix(2, 0, 0, -2, 0, 1080)"/>
<path fill="none" stroke-width="1" stroke-linecap="butt" stroke-linejoin="round" stroke="rgb(35.699463%, 60.798645%, 83.499146%)" stroke-opacity="1" stroke-miterlimit="10" d="M 567.869141 332.419922 L 901.880859 332.419922 " transform="matrix(2, 0, 0, -2, 0, 1080)"/>
<path fill="none" stroke-width="1" stroke-linecap="butt" stroke-linejoin="round" stroke="rgb(35.699463%, 60.798645%, 83.499146%)" stroke-opacity="1" stroke-miterlimit="10" d="M 567.869141 296.859375 L 901.880859 296.859375 " transform="matrix(2, 0, 0, -2, 0, 1080)"/>
<path fill="none" stroke-width="1" stroke-linecap="butt" stroke-linejoin="round" stroke="rgb(35.699463%, 60.798645%, 83.499146%)" stroke-opacity="1" stroke-miterlimit="10" d="M 568.369141 527.939453 L 568.369141 260.800781 " transform="matrix(2, 0, 0, -2, 0, 1080)"/>
<path fill="none" stroke-width="1" stroke-linecap="butt" stroke-linejoin="round" stroke="rgb(35.699463%, 60.798645%, 83.499146%)" stroke-opacity="1" stroke-miterlimit="10" d="M 901.380859 527.939453 L 901.380859 260.800781 " transform="matrix(2, 0, 0, -2, 0, 1080)"/>
<path fill="none" stroke-width="1" stroke-linecap="butt" stroke-linejoin="round" stroke="rgb(35.699463%, 60.798645%, 83.499146%)" stroke-opacity="1" stroke-miterlimit="10" d="M 567.869141 527.439453 L 901.880859 527.439453 " transform="matrix(2, 0, 0, -2, 0, 1080)"/>
<path fill="none" stroke-width="1" stroke-linecap="butt" stroke-linejoin="round" stroke="rgb(35.699463%, 60.798645%, 83.499146%)" stroke-opacity="1" stroke-miterlimit="10" d="M 567.869141 261.300781 L 901.880859 261.300781 " transform="matrix(2, 0, 0, -2, 0, 1080)"/>
</svg>
