<?xml version="1.0" encoding="UTF-8"?>
<svg xmlns="http://www.w3.org/2000/svg" xmlns:xlink="http://www.w3.org/1999/xlink" width="1920" height="1080" viewBox="0 0 1920 1080">
<rect x="-192" y="-108" width="2304" height="1296" fill="rgb(100%, 100%, 100%)" fill-opacity="1"/>
<path fill-rule="evenodd" fill="rgb(0%, 0%, 0%)" fill-opacity="1" d="M 0 1080 L 0 0 L 222 0 L 222 1080 Z M 0 1080 "/>
<path fill-rule="evenodd" fill="rgb(35.699463%, 60.798645%, 83.499146%)" fill-opacity="1" d="M 269.238281 66 L 1867.359375 66 L 1867.359375 7.601562 L 269.238281 7.601562 Z M 269.238281 66 "/>
<path fill-rule="evenodd" fill="rgb(0%, 0%, 0%)" fill-opacity="1" d="M 269.238281 124.398438 L 1044.941406 124.398438 L 1044.941406 66 L 269.238281 66 Z M 269.238281 124.398438 "/>
<path fill-rule="evenodd" fill="rgb(0%, 0%, 0%)" fill-opacity="1" d="M 1044.921875 124.398438 L 1393.539062 124.398438 L 1393.539062 66 L 1044.921875 66 Z M 1044.921875 124.398438 "/>
<path fill-rule="evenodd" fill="rgb(0%, 0%, 0%)" fill-opacity="1" d="M 1393.539062 124.398438 L 1867.339844 124.398438 L 1867.339844 66 L 1393.539062 66 Z M 1393.539062 124.398438 "/>
<path fill-rule="evenodd" fill="rgb(91.799927%, 93.699646%, 96.899414%)" fill-opacity="1" d="M 269.238281 182.800781 L 1044.941406 182.800781 L 1044.941406 124.398438 L 269.238281 124.398438 Z M 269.238281 182.800781 "/>
<path fill-rule="evenodd" fill="rgb(91.799927%, 93.699646%, 96.899414%)" fill-opacity="1" d="M 1044.921875 182.800781 L 1393.539062 182.800781 L 1393.539062 124.398438 L 1044.921875 124.398438 Z M 1044.921875 182.800781 "/>
<path fill-rule="evenodd" fill="rgb(91.799927%, 93.699646%, 96.899414%)" fill-opacity="1" d="M 1393.539062 182.800781 L 1867.339844 182.800781 L 1867.339844 124.398438 L 1393.539062 124.398438 Z M 1393.539062 182.800781 "/>
<path fill-rule="evenodd" fill="rgb(82.398987%, 87.098694%, 93.699646%)" fill-opacity="1" d="M 269.238281 241.199219 L 1044.941406 241.199219 L 1044.941406 182.800781 L 269.238281 182.800781 Z M 269.238281 241.199219 "/>
<path fill-rule="evenodd" fill="rgb(82.398987%, 87.098694%, 93.699646%)" fill-opacity="1" d="M 1044.921875 241.199219 L 1393.539062 241.199219 L 1393.539062 182.800781 L 1044.921875 182.800781 Z M 1044.921875 241.199219 "/>
<path fill-rule="evenodd" fill="rgb(82.398987%, 87.098694%, 93.699646%)" fill-opacity="1" d="M 1393.539062 241.199219 L 1867.339844 241.199219 L 1867.339844 182.800781 L 1393.539062 182.800781 Z M 1393.539062 241.199219 "/>
<path fill-rule="evenodd" fill="rgb(91.799927%, 93.699646%, 96.899414%)" fill-opacity="1" d="M 269.238281 294 L 1044.941406 294 L 1044.941406 241.199219 L 269.238281 241.199219 Z M 269.238281 294 "/>
<path fill-rule="evenodd" fill="rgb(91.799927%, 93.699646%, 96.899414%)" fill-opacity="1" d="M 1044.921875 294 L 1393.539062 294 L 1393.539062 241.199219 L 1044.921875 241.199219 Z M 1044.921875 294 "/>
<path fill-rule="evenodd" fill="rgb(91.799927%, 93.699646%, 96.899414%)" fill-opacity="1" d="M 1393.539062 294 L 1867.339844 294 L 1867.339844 241.199219 L 1393.539062 241.199219 Z M 1393.539062 294 "/>
<path fill-rule="evenodd" fill="rgb(82.398987%, 87.098694%, 93.699646%)" fill-opacity="1" d="M 269.238281 346.800781 L 1044.941406 346.800781 L 1044.941406 294 L 269.238281 294 Z M 269.238281 346.800781 "/>
<path fill-rule="evenodd" fill="rgb(82.398987%, 87.098694%, 93.699646%)" fill-opacity="1" d="M 1044.921875 346.800781 L 1393.539062 346.800781 L 1393.539062 294 L 1044.921875 294 Z M 1044.921875 346.800781 "/>
<path fill-rule="evenodd" fill="rgb(82.398987%, 87.098694%, 93.699646%)" fill-opacity="1" d="M 1393.539062 346.800781 L 1867.339844 346.800781 L 1867.339844 294 L 1393.539062 294 Z M 1393.539062 346.800781 "/>
<path fill-rule="evenodd" fill="rgb(91.799927%, 93.699646%, 96.899414%)" fill-opacity="1" d="M 269.238281 399.601562 L 1044.941406 399.601562 L 1044.941406 346.800781 L 269.238281 346.800781 Z M 269.238281 399.601562 "/>
<path fill-rule="evenodd" fill="rgb(91.799927%, 93.699646%, 96.899414%)" fill-opacity="1" d="M 1044.921875 399.601562 L 1393.539062 399.601562 L 1393.539062 346.800781 L 1044.921875 346.800781 Z M 1044.921875 399.601562 "/>
<path fill-rule="evenodd" fill="rgb(91.799927%, 93.699646%, 96.899414%)" fill-opacity="1" d="M 1393.539062 399.601562 L 1867.339844 399.601562 L 1867.339844 346.800781 L 1393.539062 346.800781 Z M 1393.539062 399.601562 "/>
<path fill-rule="evenodd" fill="rgb(82.398987%, 87.098694%, 93.699646%)" fill-opacity="1" d="M 269.238281 452.398438 L 1044.941406 452.398438 L 1044.941406 399.601562 L 269.238281 399.601562 Z M 269.238281 452.398438 "/>
<path fill-rule="evenodd" fill="rgb(82.398987%, 87.098694%, 93.699646%)" fill-opacity="1" d="M 1044.921875 452.398438 L 1393.539062 452.398438 L 1393.539062 399.601562 L 1044.921875 399.601562 Z M 1044.921875 452.398438 "/>
<path fill-rule="evenodd" fill="rgb(82.398987%, 87.098694%, 93.699646%)" fill-opacity="1" d="M 1393.539062 452.398438 L 1867.339844 452.398438 L 1867.339844 399.601562 L 1393.539062 399.601562 Z M 1393.539062 452.398438 "/>
<path fill-rule="evenodd" fill="rgb(91.799927%, 93.699646%, 96.899414%)" fill-opacity="1" d="M 269.238281 505.199219 L 1044.941406 505.199219 L 1044.941406 452.398438 L 269.238281 452.398438 Z M 269.238281 505.199219 "/>
<path fill-rule="evenodd" fill="rgb(91.799927%, 93.699646%, 96.899414%)" fill-opacity="1" d="M 1044.921875 505.199219 L 1393.539062 505.199219 L 1393.539062 452.398438 L 1044.921875 452.398438 Z M 1044.921875 505.199219 "/>
<path fill-rule="evenodd" fill="rgb(91.799927%, 93.699646%, 96.899414%)" fill-opacity="1" d="M 1393.539062 505.199219 L 1867.339844 505.199219 L 1867.339844 452.398438 L 1393.539062 452.398438 Z M 1393.539062 505.199219 "/>
<path fill-rule="evenodd" fill="rgb(82.398987%, 87.098694%, 93.699646%)" fill-opacity="1" d="M 269.238281 558 L 1044.941406 558 L 1044.941406 505.199219 L 269.238281 505.199219 Z M 269.238281 558 "/>
<path fill-rule="evenodd" fill="rgb(82.398987%, 87.098694%, 93.699646%)" fill-opacity="1" d="M 1044.921875 558 L 1393.539062 558 L 1393.539062 505.199219 L 1044.921875 505.199219 Z M 1044.921875 558 "/>
<path fill-rule="evenodd" fill="rgb(82.398987%, 87.098694%, 93.699646%)" fill-opacity="1" d="M 1393.539062 558 L 1867.339844 558 L 1867.339844 505.199219 L 1393.539062 505.199219 Z M 1393.539062 558 "/>
<path fill-rule="evenodd" fill="rgb(91.799927%, 93.699646%, 96.899414%)" fill-opacity="1" d="M 269.238281 610.800781 L 1044.941406 610.800781 L 1044.941406 558 L 269.238281 558 Z M 269.238281 610.800781 "/>
<path fill-rule="evenodd" fill="rgb(91.799927%, 93.699646%, 96.899414%)" fill-opacity="1" d="M 1044.921875 610.800781 L 1393.539062 610.800781 L 1393.539062 558 L 1044.921875 558 Z M 1044.921875 610.800781 "/>
<path fill-rule="evenodd" fill="rgb(91.799927%, 93.699646%, 96.899414%)" fill-opacity="1" d="M 1393.539062 610.800781 L 1867.339844 610.800781 L 1867.339844 558 L 1393.539062 558 Z M 1393.539062 610.800781 "/>
<path fill-rule="evenodd" fill="rgb(82.398987%, 87.098694%, 93.699646%)" fill-opacity="1" d="M 269.238281 702 L 1044.941406 702 L 1044.941406 610.800781 L 269.238281 610.800781 Z M 269.238281 702 "/>
<path fill-rule="evenodd" fill="rgb(82.398987%, 87.098694%, 93.699646%)" fill-opacity="1" d="M 1044.921875 702 L 1393.539062 702 L 1393.539062 610.800781 L 1044.921875 610.800781 Z M 1044.921875 702 "/>
<path fill-rule="evenodd" fill="rgb(82.398987%, 87.098694%, 93.699646%)" fill-opacity="1" d="M 1393.539062 702 L 1867.339844 702 L 1867.339844 610.800781 L 1393.539062 610.800781 Z M 1393.539062 702 "/>
<path fill-rule="evenodd" fill="rgb(91.799927%, 93.699646%, 96.899414%)" fill-opacity="1" d="M 269.238281 754.800781 L 1044.941406 754.800781 L 1044.941406 702 L 269.238281 702 Z M 269.238281 754.800781 "/>
<path fill-rule="evenodd" fill="rgb(91.799927%, 93.699646%, 96.899414%)" fill-opacity="1" d="M 1044.921875 754.800781 L 1393.539062 754.800781 L 1393.539062 702 L 1044.921875 702 Z M 1044.921875 754.800781 "/>
<path fill-rule="evenodd" fill="rgb(91.799927%, 93.699646%, 96.899414%)" fill-opacity="1" d="M 1393.539062 754.800781 L 1867.339844 754.800781 L 1867.339844 702 L 1393.539062 702 Z M 1393.539062 754.800781 "/>
<path fill-rule="evenodd" fill="rgb(82.398987%, 87.098694%, 93.699646%)" fill-opacity="1" d="M 269.238281 807.601562 L 1044.941406 807.601562 L 1044.941406 754.800781 L 269.238281 754.800781 Z M 269.238281 807.601562 "/>
<path fill-rule="evenodd" fill="rgb(82.398987%, 87.098694%, 93.699646%)" fill-opacity="1" d="M 1044.921875 807.601562 L 1393.539062 807.601562 L 1393.539062 754.800781 L 1044.921875 754.800781 Z M 1044.921875 807.601562 "/>
<path fill-rule="evenodd" fill="rgb(82.398987%, 87.098694%, 93.699646%)" fill-opacity="1" d="M 1393.539062 807.601562 L 1867.339844 807.601562 L 1867.339844 754.800781 L 1393.539062 754.800781 Z M 1393.539062 807.601562 "/>
<path fill-rule="evenodd" fill="rgb(91.799927%, 93.699646%, 96.899414%)" fill-opacity="1" d="M 269.238281 860.398438 L 1044.941406 860.398438 L 1044.941406 807.601562 L 269.238281 807.601562 Z M 269.238281 860.398438 "/>
<path fill-rule="evenodd" fill="rgb(91.799927%, 93.699646%, 96.899414%)" fill-opacity="1" d="M 1044.921875 860.398438 L 1393.539062 860.398438 L 1393.539062 807.601562 L 1044.921875 807.601562 Z M 1044.921875 860.398438 "/>
<path fill-rule="evenodd" fill="rgb(91.799927%, 93.699646%, 96.899414%)" fill-opacity="1" d="M 1393.539062 860.398438 L 1867.339844 860.398438 L 1867.339844 807.601562 L 1393.539062 807.601562 Z M 1393.539062 860.398438 "/>
<path fill-rule="evenodd" fill="rgb(82.398987%, 87.098694%, 93.699646%)" fill-opacity="1" d="M 269.238281 913.207031 L 1044.941406 913.207031 L 1044.941406 860.40625 L 269.238281 860.40625 Z M 269.238281 913.207031 "/>
<path fill-rule="evenodd" fill="rgb(82.398987%, 87.098694%, 93.699646%)" fill-opacity="1" d="M 1044.921875 913.207031 L 1393.539062 913.207031 L 1393.539062 860.40625 L 1044.921875 860.40625 Z M 1044.921875 913.207031 "/>
<path fill-rule="evenodd" fill="rgb(82.398987%, 87.098694%, 93.699646%)" fill-opacity="1" d="M 1393.539062 913.207031 L 1867.339844 913.207031 L 1867.339844 860.40625 L 1393.539062 860.40625 Z M 1393.539062 913.207031 "/>
<path fill-rule="evenodd" fill="rgb(91.799927%, 93.699646%, 96.899414%)" fill-opacity="1" d="M 269.238281 966.007812 L 1044.941406 966.007812 L 1044.941406 913.207031 L 269.238281 913.207031 Z M 269.238281 966.007812 "/>
<path fill-rule="evenodd" fill="rgb(91.799927%, 93.699646%, 96.899414%)" fill-opacity="1" d="M 1044.921875 966.007812 L 1393.539062 966.007812 L 1393.539062 913.207031 L 1044.921875 913.207031 Z M 1044.921875 966.007812 "/>
<path fill-rule="evenodd" fill="rgb(91.799927%, 93.699646%, 96.899414%)" fill-opacity="1" d="M 1393.539062 966.007812 L 1867.339844 966.007812 L 1867.339844 913.207031 L 1393.539062 913.207031 Z M 1393.539062 966.007812 "/>
<path fill-rule="evenodd" fill="rgb(82.398987%, 87.098694%, 93.699646%)" fill-opacity="1" d="M 269.238281 1018.808594 L 1044.941406 1018.808594 L 1044.941406 966.007812 L 269.238281 966.007812 Z M 269.238281 1018.808594 "/>
<path fill-rule="evenodd" fill="rgb(82.398987%, 87.098694%, 93.699646%)" fill-opacity="1" d="M 1044.921875 1018.808594 L 1393.539062 1018.808594 L 1393.539062 966.007812 L 1044.921875 966.007812 Z M 1044.921875 1018.808594 "/>
<path fill-rule="evenodd" fill="rgb(82.398987%, 87.098694%, 93.699646%)" fill-opacity="1" d="M 1393.539062 1018.808594 L 1867.339844 1018.808594 L 1867.339844 966.007812 L 1393.539062 966.007812 Z M 1393.539062 1018.808594 "/>
<path fill="none" stroke-width="1" stroke-linecap="butt" stroke-linejoin="round" stroke="rgb(100%, 100%, 100%)" stroke-opacity="1" stroke-miterlimit="10" d="M 522.460938 508.5 L 522.460938 30.095703 " transform="matrix(2, 0, 0, -2, 0, 1080)"/>
<path fill="none" stroke-width="1" stroke-linecap="butt" stroke-linejoin="round" stroke="rgb(100%, 100%, 100%)" stroke-opacity="1" stroke-miterlimit="10" d="M 696.769531 508.5 L 696.769531 30.095703 " transform="matrix(2, 0, 0, -2, 0, 1080)"/>
<path fill="none" stroke-width="3" stroke-linecap="butt" stroke-linejoin="round" stroke="rgb(100%, 100%, 100%)" stroke-opacity="1" stroke-miterlimit="10" d="M 134.119141 507 L 934.179688 507 " transform="matrix(2, 0, 0, -2, 0, 1080)"/>
<path fill="none" stroke-width="1" stroke-linecap="butt" stroke-linejoin="round" stroke="rgb(100%, 100%, 100%)" stroke-opacity="1" stroke-miterlimit="10" d="M 134.119141 477.800781 L 934.179688 477.800781 " transform="matrix(2, 0, 0, -2, 0, 1080)"/>
<path fill="none" stroke-width="1" stroke-linecap="butt" stroke-linejoin="round" stroke="rgb(100%, 100%, 100%)" stroke-opacity="1" stroke-miterlimit="10" d="M 134.119141 448.599609 L 934.179688 448.599609 " transform="matrix(2, 0, 0, -2, 0, 1080)"/>
<path fill="none" stroke-width="1" stroke-linecap="butt" stroke-linejoin="round" stroke="rgb(100%, 100%, 100%)" stroke-opacity="1" stroke-miterlimit="10" d="M 134.119141 419.400391 L 934.179688 419.400391 " transform="matrix(2, 0, 0, -2, 0, 1080)"/>
<path fill="none" stroke-width="1" stroke-linecap="butt" stroke-linejoin="round" stroke="rgb(100%, 100%, 100%)" stroke-opacity="1" stroke-miterlimit="10" d="M 134.119141 393 L 934.179688 393 " transform="matrix(2, 0, 0, -2, 0, 1080)"/>
<path fill="none" stroke-width="1" stroke-linecap="butt" stroke-linejoin="round" stroke="rgb(100%, 100%, 100%)" stroke-opacity="1" stroke-miterlimit="10" d="M 134.119141 366.599609 L 934.179688 366.599609 " transform="matrix(2, 0, 0, -2, 0, 1080)"/>
<path fill="none" stroke-width="1" stroke-linecap="butt" stroke-linejoin="round" stroke="rgb(100%, 100%, 100%)" stroke-opacity="1" stroke-miterlimit="10" d="M 134.119141 340.199219 L 934.179688 340.199219 " transform="matrix(2, 0, 0, -2, 0, 1080)"/>
<path fill="none" stroke-width="1" stroke-linecap="butt" stroke-linejoin="round" stroke="rgb(100%, 100%, 100%)" stroke-opacity="1" stroke-miterlimit="10" d="M 134.119141 313.800781 L 934.179688 313.800781 " transform="matrix(2, 0, 0, -2, 0, 1080)"/>
<path fill="none" stroke-width="1" stroke-linecap="butt" stroke-linejoin="round" stroke="rgb(100%, 100%, 100%)" stroke-opacity="1" stroke-miterlimit="10" d="M 134.119141 287.400391 L 934.179688 287.400391 " transform="matrix(2, 0, 0, -2, 0, 1080)"/>
<path fill="none" stroke-width="1" stroke-linecap="butt" stroke-linejoin="round" stroke="rgb(100%, 100%, 100%)" stroke-opacity="1" stroke-miterlimit="10" d="M 134.119141 261 L 934.179688 261 " transform="matrix(2, 0, 0, -2, 0, 1080)"/>
<path fill="none" stroke-width="1" stroke-linecap="butt" stroke-linejoin="round" stroke="rgb(100%, 100%, 100%)" stroke-opacity="1" stroke-miterlimit="10" d="M 134.119141 234.599609 L 934.179688 234.599609 " transform="matrix(2, 0, 0, -2, 0, 1080)"/>
<path fill="none" stroke-width="1" stroke-linecap="butt" stroke-linejoin="round" stroke="rgb(100%, 100%, 100%)" stroke-opacity="1" stroke-miterlimit="10" d="M 134.119141 189 L 934.179688 189 " transform="matrix(2, 0, 0, -2, 0, 1080)"/>
<path fill="none" stroke-width="1" stroke-linecap="butt" stroke-linejoin="round" stroke="rgb(100%, 100%, 100%)" stroke-opacity="1" stroke-miterlimit="10" d="M 134.119141 162.599609 L 934.179688 162.599609 " transform="matrix(2, 0, 0, -2, 0, 1080)"/>
<path fill="none" stroke-width="1" stroke-linecap="butt" stroke-linejoin="round" stroke="rgb(100%, 100%, 100%)" stroke-opacity="1" stroke-miterlimit="10" d="M 134.119141 136.199219 L 934.179688 136.199219 " transform="matrix(2, 0, 0, -2, 0, 1080)"/>
<path fill="none" stroke-width="1" stroke-linecap="butt" stroke-linejoin="round" stroke="rgb(100%, 100%, 100%)" stroke-opacity="1" stroke-miterlimit="10" d="M 134.119141 109.800781 L 934.179688 109.800781 " transform="matrix(2, 0, 0, -2, 0, 1080)"/>
<path fill="none" stroke-width="1" stroke-linecap="butt" stroke-linejoin="round" stroke="rgb(100%, 100%, 100%)" stroke-opacity="1" stroke-miterlimit="10" d="M 134.119141 83.396484 L 934.179688 83.396484 " transform="matrix(2, 0, 0, -2, 0, 1080)"/>
<path fill="none" stroke-width="1" stroke-linecap="butt" stroke-linejoin="round" stroke="rgb(100%, 100%, 100%)" stroke-opacity="1" stroke-miterlimit="10" d="M 134.119141 56.996094 L 934.179688 56.996094 " transform="matrix(2, 0, 0, -2, 0, 1080)"/>
<path fill="none" stroke-width="1" stroke-linecap="butt" stroke-linejoin="round" stroke="rgb(100%, 100%, 100%)" stroke-opacity="1" stroke-miterlimit="10" d="M 134.619141 536.699219 L 134.619141 30.095703 " transform="matrix(2, 0, 0, -2, 0, 1080)"/>
<path fill="none" stroke-width="1" stroke-linecap="butt" stroke-linejoin="round" stroke="rgb(100%, 100%, 100%)" stroke-opacity="1" stroke-miterlimit="10" d="M 933.679688 536.699219 L 933.679688 30.095703 " transform="matrix(2, 0, 0, -2, 0, 1080)"/>
<path fill="none" stroke-width="1" stroke-linecap="butt" stroke-linejoin="round" stroke="rgb(100%, 100%, 100%)" stroke-opacity="1" stroke-miterlimit="10" d="M 134.119141 536.199219 L 934.179688 536.199219 " transform="matrix(2, 0, 0, -2, 0, 1080)"/>
<path fill="none" stroke-width="1" stroke-linecap="butt" stroke-linejoin="round" stroke="rgb(100%, 100%, 100%)" stroke-opacity="1" stroke-miterlimit="10" d="M 134.119141 30.595703 L 934.179688 30.595703 " transform="matrix(2, 0, 0, -2, 0, 1080)"/>
</svg>
