<?xml version="1.0" encoding="UTF-8"?>
<svg xmlns="http://www.w3.org/2000/svg" xmlns:xlink="http://www.w3.org/1999/xlink" width="1920" height="1080" viewBox="0 0 1920 1080">
<rect x="-192" y="-108" width="2304" height="1296" fill="rgb(100%, 100%, 100%)" fill-opacity="1"/>
<path fill-rule="evenodd" fill="rgb(0%, 0%, 0%)" fill-opacity="1" d="M 0 1080 L 0 0 L 222 0 L 222 1080 Z M 0 1080 "/>
<path fill-rule="evenodd" fill="rgb(35.699463%, 60.798645%, 83.499146%)" fill-opacity="1" d="M 269.238281 68.578125 L 1867.359375 68.578125 L 1867.359375 10.179688 L 269.238281 10.179688 Z M 269.238281 68.578125 "/>
<path fill-rule="evenodd" fill="rgb(0%, 0%, 0%)" fill-opacity="1" d="M 269.238281 126.980469 L 1004.320312 126.980469 L 1004.320312 68.578125 L 269.238281 68.578125 Z M 269.238281 126.980469 "/>
<path fill-rule="evenodd" fill="rgb(0%, 0%, 0%)" fill-opacity="1" d="M 1004.300781 126.980469 L 1393.539062 126.980469 L 1393.539062 68.578125 L 1004.300781 68.578125 Z M 1004.300781 126.980469 "/>
<path fill-rule="evenodd" fill="rgb(0%, 0%, 0%)" fill-opacity="1" d="M 1393.539062 126.980469 L 1867.339844 126.980469 L 1867.339844 68.578125 L 1393.539062 68.578125 Z M 1393.539062 126.980469 "/>
<path fill-rule="evenodd" fill="rgb(91.799927%, 93.699646%, 96.899414%)" fill-opacity="1" d="M 269.238281 179.78125 L 1004.320312 179.78125 L 1004.320312 126.980469 L 269.238281 126.980469 Z M 269.238281 179.78125 "/>
<path fill-rule="evenodd" fill="rgb(91.799927%, 93.699646%, 96.899414%)" fill-opacity="1" d="M 1004.300781 179.78125 L 1393.539062 179.78125 L 1393.539062 126.980469 L 1004.300781 126.980469 Z M 1004.300781 179.78125 "/>
<path fill-rule="evenodd" fill="rgb(91.799927%, 93.699646%, 96.899414%)" fill-opacity="1" d="M 1393.539062 179.78125 L 1867.339844 179.78125 L 1867.339844 126.980469 L 1393.539062 126.980469 Z M 1393.539062 179.78125 "/>
<path fill-rule="evenodd" fill="rgb(82.398987%, 87.098694%, 93.699646%)" fill-opacity="1" d="M 269.238281 232.578125 L 1004.320312 232.578125 L 1004.320312 179.78125 L 269.238281 179.78125 Z M 269.238281 232.578125 "/>
<path fill-rule="evenodd" fill="rgb(82.398987%, 87.098694%, 93.699646%)" fill-opacity="1" d="M 1004.300781 232.578125 L 1393.539062 232.578125 L 1393.539062 179.78125 L 1004.300781 179.78125 Z M 1004.300781 232.578125 "/>
<path fill-rule="evenodd" fill="rgb(82.398987%, 87.098694%, 93.699646%)" fill-opacity="1" d="M 1393.539062 232.578125 L 1867.339844 232.578125 L 1867.339844 179.78125 L 1393.539062 179.78125 Z M 1393.539062 232.578125 "/>
<path fill-rule="evenodd" fill="rgb(91.799927%, 93.699646%, 96.899414%)" fill-opacity="1" d="M 269.238281 285.378906 L 1004.320312 285.378906 L 1004.320312 232.578125 L 269.238281 232.578125 Z M 269.238281 285.378906 "/>
<path fill-rule="evenodd" fill="rgb(91.799927%, 93.699646%, 96.899414%)" fill-opacity="1" d="M 1004.300781 285.378906 L 1393.539062 285.378906 L 1393.539062 232.578125 L 1004.300781 232.578125 Z M 1004.300781 285.378906 "/>
<path fill-rule="evenodd" fill="rgb(91.799927%, 93.699646%, 96.899414%)" fill-opacity="1" d="M 1393.539062 285.378906 L 1867.339844 285.378906 L 1867.339844 232.578125 L 1393.539062 232.578125 Z M 1393.539062 285.378906 "/>
<path fill-rule="evenodd" fill="rgb(82.398987%, 87.098694%, 93.699646%)" fill-opacity="1" d="M 269.238281 338.179688 L 1004.320312 338.179688 L 1004.320312 285.378906 L 269.238281 285.378906 Z M 269.238281 338.179688 "/>
<path fill-rule="evenodd" fill="rgb(82.398987%, 87.098694%, 93.699646%)" fill-opacity="1" d="M 1004.300781 338.179688 L 1393.539062 338.179688 L 1393.539062 285.378906 L 1004.300781 285.378906 Z M 1004.300781 338.179688 "/>
<path fill-rule="evenodd" fill="rgb(82.398987%, 87.098694%, 93.699646%)" fill-opacity="1" d="M 1393.539062 338.179688 L 1867.339844 338.179688 L 1867.339844 285.378906 L 1393.539062 285.378906 Z M 1393.539062 338.179688 "/>
<path fill-rule="evenodd" fill="rgb(91.799927%, 93.699646%, 96.899414%)" fill-opacity="1" d="M 269.238281 390.980469 L 1004.320312 390.980469 L 1004.320312 338.179688 L 269.238281 338.179688 Z M 269.238281 390.980469 "/>
<path fill-rule="evenodd" fill="rgb(91.799927%, 93.699646%, 96.899414%)" fill-opacity="1" d="M 1004.300781 390.980469 L 1393.539062 390.980469 L 1393.539062 338.179688 L 1004.300781 338.179688 Z M 1004.300781 390.980469 "/>
<path fill-rule="evenodd" fill="rgb(91.799927%, 93.699646%, 96.899414%)" fill-opacity="1" d="M 1393.539062 390.980469 L 1867.339844 390.980469 L 1867.339844 338.179688 L 1393.539062 338.179688 Z M 1393.539062 390.980469 "/>
<path fill-rule="evenodd" fill="rgb(82.398987%, 87.098694%, 93.699646%)" fill-opacity="1" d="M 269.238281 443.78125 L 1004.320312 443.78125 L 1004.320312 390.980469 L 269.238281 390.980469 Z M 269.238281 443.78125 "/>
<path fill-rule="evenodd" fill="rgb(82.398987%, 87.098694%, 93.699646%)" fill-opacity="1" d="M 1004.300781 443.78125 L 1393.539062 443.78125 L 1393.539062 390.980469 L 1004.300781 390.980469 Z M 1004.300781 443.78125 "/>
<path fill-rule="evenodd" fill="rgb(82.398987%, 87.098694%, 93.699646%)" fill-opacity="1" d="M 1393.539062 443.78125 L 1867.339844 443.78125 L 1867.339844 390.980469 L 1393.539062 390.980469 Z M 1393.539062 443.78125 "/>
<path fill-rule="evenodd" fill="rgb(91.799927%, 93.699646%, 96.899414%)" fill-opacity="1" d="M 269.238281 496.578125 L 1004.320312 496.578125 L 1004.320312 443.78125 L 269.238281 443.78125 Z M 269.238281 496.578125 "/>
<path fill-rule="evenodd" fill="rgb(91.799927%, 93.699646%, 96.899414%)" fill-opacity="1" d="M 1004.300781 496.578125 L 1393.539062 496.578125 L 1393.539062 443.78125 L 1004.300781 443.78125 Z M 1004.300781 496.578125 "/>
<path fill-rule="evenodd" fill="rgb(91.799927%, 93.699646%, 96.899414%)" fill-opacity="1" d="M 1393.539062 496.578125 L 1867.339844 496.578125 L 1867.339844 443.78125 L 1393.539062 443.78125 Z M 1393.539062 496.578125 "/>
<path fill-rule="evenodd" fill="rgb(82.398987%, 87.098694%, 93.699646%)" fill-opacity="1" d="M 269.238281 549.378906 L 1004.320312 549.378906 L 1004.320312 496.578125 L 269.238281 496.578125 Z M 269.238281 549.378906 "/>
<path fill-rule="evenodd" fill="rgb(82.398987%, 87.098694%, 93.699646%)" fill-opacity="1" d="M 1004.300781 549.378906 L 1393.539062 549.378906 L 1393.539062 496.578125 L 1004.300781 496.578125 Z M 1004.300781 549.378906 "/>
<path fill-rule="evenodd" fill="rgb(82.398987%, 87.098694%, 93.699646%)" fill-opacity="1" d="M 1393.539062 549.378906 L 1867.339844 549.378906 L 1867.339844 496.578125 L 1393.539062 496.578125 Z M 1393.539062 549.378906 "/>
<path fill-rule="evenodd" fill="rgb(91.799927%, 93.699646%, 96.899414%)" fill-opacity="1" d="M 269.238281 602.179688 L 1004.320312 602.179688 L 1004.320312 549.378906 L 269.238281 549.378906 Z M 269.238281 602.179688 "/>
<path fill-rule="evenodd" fill="rgb(91.799927%, 93.699646%, 96.899414%)" fill-opacity="1" d="M 1004.300781 602.179688 L 1393.539062 602.179688 L 1393.539062 549.378906 L 1004.300781 549.378906 Z M 1004.300781 602.179688 "/>
<path fill-rule="evenodd" fill="rgb(91.799927%, 93.699646%, 96.899414%)" fill-opacity="1" d="M 1393.539062 602.179688 L 1867.339844 602.179688 L 1867.339844 549.378906 L 1393.539062 549.378906 Z M 1393.539062 602.179688 "/>
<path fill-rule="evenodd" fill="rgb(82.398987%, 87.098694%, 93.699646%)" fill-opacity="1" d="M 269.238281 654.980469 L 1004.320312 654.980469 L 1004.320312 602.179688 L 269.238281 602.179688 Z M 269.238281 654.980469 "/>
<path fill-rule="evenodd" fill="rgb(82.398987%, 87.098694%, 93.699646%)" fill-opacity="1" d="M 1004.300781 731.78125 L 1393.539062 731.78125 L 1393.539062 602.179688 L 1004.300781 602.179688 Z M 1004.300781 731.78125 "/>
<path fill-rule="evenodd" fill="rgb(82.398987%, 87.098694%, 93.699646%)" fill-opacity="1" d="M 1393.539062 654.980469 L 1867.339844 654.980469 L 1867.339844 602.179688 L 1393.539062 602.179688 Z M 1393.539062 654.980469 "/>
<path fill-rule="evenodd" fill="rgb(91.799927%, 93.699646%, 96.899414%)" fill-opacity="1" d="M 269.238281 731.78125 L 1004.320312 731.78125 L 1004.320312 654.980469 L 269.238281 654.980469 Z M 269.238281 731.78125 "/>
<path fill-rule="evenodd" fill="rgb(91.799927%, 93.699646%, 96.899414%)" fill-opacity="1" d="M 1393.539062 731.78125 L 1867.339844 731.78125 L 1867.339844 654.980469 L 1393.539062 654.980469 Z M 1393.539062 731.78125 "/>
<path fill-rule="evenodd" fill="rgb(82.398987%, 87.098694%, 93.699646%)" fill-opacity="1" d="M 269.238281 784.578125 L 1004.320312 784.578125 L 1004.320312 731.78125 L 269.238281 731.78125 Z M 269.238281 784.578125 "/>
<path fill-rule="evenodd" fill="rgb(82.398987%, 87.098694%, 93.699646%)" fill-opacity="1" d="M 1004.300781 784.578125 L 1393.539062 784.578125 L 1393.539062 731.78125 L 1004.300781 731.78125 Z M 1004.300781 784.578125 "/>
<path fill-rule="evenodd" fill="rgb(82.398987%, 87.098694%, 93.699646%)" fill-opacity="1" d="M 1393.539062 784.578125 L 1867.339844 784.578125 L 1867.339844 731.78125 L 1393.539062 731.78125 Z M 1393.539062 784.578125 "/>
<path fill-rule="evenodd" fill="rgb(91.799927%, 93.699646%, 96.899414%)" fill-opacity="1" d="M 269.238281 837.378906 L 1004.320312 837.378906 L 1004.320312 784.578125 L 269.238281 784.578125 Z M 269.238281 837.378906 "/>
<path fill-rule="evenodd" fill="rgb(91.799927%, 93.699646%, 96.899414%)" fill-opacity="1" d="M 1004.300781 837.378906 L 1393.539062 837.378906 L 1393.539062 784.578125 L 1004.300781 784.578125 Z M 1004.300781 837.378906 "/>
<path fill-rule="evenodd" fill="rgb(91.799927%, 93.699646%, 96.899414%)" fill-opacity="1" d="M 1393.539062 837.378906 L 1867.339844 837.378906 L 1867.339844 784.578125 L 1393.539062 784.578125 Z M 1393.539062 837.378906 "/>
<path fill-rule="evenodd" fill="rgb(82.398987%, 87.098694%, 93.699646%)" fill-opacity="1" d="M 269.238281 890.183594 L 1004.320312 890.183594 L 1004.320312 837.382812 L 269.238281 837.382812 Z M 269.238281 890.183594 "/>
<path fill-rule="evenodd" fill="rgb(82.398987%, 87.098694%, 93.699646%)" fill-opacity="1" d="M 1004.300781 890.183594 L 1393.539062 890.183594 L 1393.539062 837.382812 L 1004.300781 837.382812 Z M 1004.300781 890.183594 "/>
<path fill-rule="evenodd" fill="rgb(82.398987%, 87.098694%, 93.699646%)" fill-opacity="1" d="M 1393.539062 890.183594 L 1867.339844 890.183594 L 1867.339844 837.382812 L 1393.539062 837.382812 Z M 1393.539062 890.183594 "/>
<path fill-rule="evenodd" fill="rgb(91.799927%, 93.699646%, 96.899414%)" fill-opacity="1" d="M 269.238281 942.980469 L 1004.320312 942.980469 L 1004.320312 890.183594 L 269.238281 890.183594 Z M 269.238281 942.980469 "/>
<path fill-rule="evenodd" fill="rgb(91.799927%, 93.699646%, 96.899414%)" fill-opacity="1" d="M 1004.300781 942.980469 L 1393.539062 942.980469 L 1393.539062 890.183594 L 1004.300781 890.183594 Z M 1004.300781 942.980469 "/>
<path fill-rule="evenodd" fill="rgb(91.799927%, 93.699646%, 96.899414%)" fill-opacity="1" d="M 1393.539062 942.980469 L 1867.339844 942.980469 L 1867.339844 890.183594 L 1393.539062 890.183594 Z M 1393.539062 942.980469 "/>
<path fill-rule="evenodd" fill="rgb(82.398987%, 87.098694%, 93.699646%)" fill-opacity="1" d="M 269.238281 1034.183594 L 1004.320312 1034.183594 L 1004.320312 942.980469 L 269.238281 942.980469 Z M 269.238281 1034.183594 "/>
<path fill-rule="evenodd" fill="rgb(82.398987%, 87.098694%, 93.699646%)" fill-opacity="1" d="M 1004.300781 1034.183594 L 1393.539062 1034.183594 L 1393.539062 942.980469 L 1004.300781 942.980469 Z M 1004.300781 1034.183594 "/>
<path fill-rule="evenodd" fill="rgb(82.398987%, 87.098694%, 93.699646%)" fill-opacity="1" d="M 1393.539062 1034.183594 L 1867.339844 1034.183594 L 1867.339844 942.980469 L 1393.539062 942.980469 Z M 1393.539062 1034.183594 "/>
<path fill="none" stroke-width="1" stroke-linecap="butt" stroke-linejoin="round" stroke="rgb(100%, 100%, 100%)" stroke-opacity="1" stroke-miterlimit="10" d="M 502.150391 507.210938 L 502.150391 22.408203 " transform="matrix(2, 0, 0, -2, 0, 1080)"/>
<path fill="none" stroke-width="1" stroke-linecap="butt" stroke-linejoin="round" stroke="rgb(100%, 100%, 100%)" stroke-opacity="1" stroke-miterlimit="10" d="M 696.769531 507.210938 L 696.769531 22.408203 " transform="matrix(2, 0, 0, -2, 0, 1080)"/>
<path fill="none" stroke-width="3" stroke-linecap="butt" stroke-linejoin="round" stroke="rgb(100%, 100%, 100%)" stroke-opacity="1" stroke-miterlimit="10" d="M 134.119141 505.710938 L 934.179688 505.710938 " transform="matrix(2, 0, 0, -2, 0, 1080)"/>
<path fill="none" stroke-width="1" stroke-linecap="butt" stroke-linejoin="round" stroke="rgb(100%, 100%, 100%)" stroke-opacity="1" stroke-miterlimit="10" d="M 134.119141 476.509766 L 934.179688 476.509766 " transform="matrix(2, 0, 0, -2, 0, 1080)"/>
<path fill="none" stroke-width="1" stroke-linecap="butt" stroke-linejoin="round" stroke="rgb(100%, 100%, 100%)" stroke-opacity="1" stroke-miterlimit="10" d="M 134.119141 450.109375 L 934.179688 450.109375 " transform="matrix(2, 0, 0, -2, 0, 1080)"/>
<path fill="none" stroke-width="1" stroke-linecap="butt" stroke-linejoin="round" stroke="rgb(100%, 100%, 100%)" stroke-opacity="1" stroke-miterlimit="10" d="M 134.119141 423.710938 L 934.179688 423.710938 " transform="matrix(2, 0, 0, -2, 0, 1080)"/>
<path fill="none" stroke-width="1" stroke-linecap="butt" stroke-linejoin="round" stroke="rgb(100%, 100%, 100%)" stroke-opacity="1" stroke-miterlimit="10" d="M 134.119141 397.310547 L 934.179688 397.310547 " transform="matrix(2, 0, 0, -2, 0, 1080)"/>
<path fill="none" stroke-width="1" stroke-linecap="butt" stroke-linejoin="round" stroke="rgb(100%, 100%, 100%)" stroke-opacity="1" stroke-miterlimit="10" d="M 134.119141 370.910156 L 934.179688 370.910156 " transform="matrix(2, 0, 0, -2, 0, 1080)"/>
<path fill="none" stroke-width="1" stroke-linecap="butt" stroke-linejoin="round" stroke="rgb(100%, 100%, 100%)" stroke-opacity="1" stroke-miterlimit="10" d="M 134.119141 344.509766 L 934.179688 344.509766 " transform="matrix(2, 0, 0, -2, 0, 1080)"/>
<path fill="none" stroke-width="1" stroke-linecap="butt" stroke-linejoin="round" stroke="rgb(100%, 100%, 100%)" stroke-opacity="1" stroke-miterlimit="10" d="M 134.119141 318.109375 L 934.179688 318.109375 " transform="matrix(2, 0, 0, -2, 0, 1080)"/>
<path fill="none" stroke-width="1" stroke-linecap="butt" stroke-linejoin="round" stroke="rgb(100%, 100%, 100%)" stroke-opacity="1" stroke-miterlimit="10" d="M 134.119141 291.710938 L 934.179688 291.710938 " transform="matrix(2, 0, 0, -2, 0, 1080)"/>
<path fill="none" stroke-width="1" stroke-linecap="butt" stroke-linejoin="round" stroke="rgb(100%, 100%, 100%)" stroke-opacity="1" stroke-miterlimit="10" d="M 134.119141 265.310547 L 934.179688 265.310547 " transform="matrix(2, 0, 0, -2, 0, 1080)"/>
<path fill="none" stroke-width="1" stroke-linecap="butt" stroke-linejoin="round" stroke="rgb(100%, 100%, 100%)" stroke-opacity="1" stroke-miterlimit="10" d="M 134.119141 238.910156 L 934.179688 238.910156 " transform="matrix(2, 0, 0, -2, 0, 1080)"/>
<path fill="none" stroke-width="1" stroke-linecap="butt" stroke-linejoin="round" stroke="rgb(100%, 100%, 100%)" stroke-opacity="1" stroke-miterlimit="10" d="M 134.119141 212.509766 L 502.650391 212.509766 " transform="matrix(2, 0, 0, -2, 0, 1080)"/>
<path fill="none" stroke-width="1" stroke-linecap="butt" stroke-linejoin="round" stroke="rgb(100%, 100%, 100%)" stroke-opacity="1" stroke-miterlimit="10" d="M 696.269531 212.509766 L 934.179688 212.509766 " transform="matrix(2, 0, 0, -2, 0, 1080)"/>
<path fill="none" stroke-width="1" stroke-linecap="butt" stroke-linejoin="round" stroke="rgb(100%, 100%, 100%)" stroke-opacity="1" stroke-miterlimit="10" d="M 134.119141 174.109375 L 934.179688 174.109375 " transform="matrix(2, 0, 0, -2, 0, 1080)"/>
<path fill="none" stroke-width="1" stroke-linecap="butt" stroke-linejoin="round" stroke="rgb(100%, 100%, 100%)" stroke-opacity="1" stroke-miterlimit="10" d="M 134.119141 147.710938 L 934.179688 147.710938 " transform="matrix(2, 0, 0, -2, 0, 1080)"/>
<path fill="none" stroke-width="1" stroke-linecap="butt" stroke-linejoin="round" stroke="rgb(100%, 100%, 100%)" stroke-opacity="1" stroke-miterlimit="10" d="M 134.119141 121.310547 L 934.179688 121.310547 " transform="matrix(2, 0, 0, -2, 0, 1080)"/>
<path fill="none" stroke-width="1" stroke-linecap="butt" stroke-linejoin="round" stroke="rgb(100%, 100%, 100%)" stroke-opacity="1" stroke-miterlimit="10" d="M 134.119141 94.908203 L 934.179688 94.908203 " transform="matrix(2, 0, 0, -2, 0, 1080)"/>
<path fill="none" stroke-width="1" stroke-linecap="butt" stroke-linejoin="round" stroke="rgb(100%, 100%, 100%)" stroke-opacity="1" stroke-miterlimit="10" d="M 134.119141 68.509766 L 934.179688 68.509766 " transform="matrix(2, 0, 0, -2, 0, 1080)"/>
<path fill="none" stroke-width="1" stroke-linecap="butt" stroke-linejoin="round" stroke="rgb(100%, 100%, 100%)" stroke-opacity="1" stroke-miterlimit="10" d="M 134.619141 535.410156 L 134.619141 22.408203 " transform="matrix(2, 0, 0, -2, 0, 1080)"/>
<path fill="none" stroke-width="1" stroke-linecap="butt" stroke-linejoin="round" stroke="rgb(100%, 100%, 100%)" stroke-opacity="1" stroke-miterlimit="10" d="M 933.679688 535.410156 L 933.679688 22.408203 " transform="matrix(2, 0, 0, -2, 0, 1080)"/>
<path fill="none" stroke-width="1" stroke-linecap="butt" stroke-linejoin="round" stroke="rgb(100%, 100%, 100%)" stroke-opacity="1" stroke-miterlimit="10" d="M 134.119141 534.910156 L 934.179688 534.910156 " transform="matrix(2, 0, 0, -2, 0, 1080)"/>
<path fill="none" stroke-width="1" stroke-linecap="butt" stroke-linejoin="round" stroke="rgb(100%, 100%, 100%)" stroke-opacity="1" stroke-miterlimit="10" d="M 134.119141 22.908203 L 934.179688 22.908203 " transform="matrix(2, 0, 0, -2, 0, 1080)"/>
</svg>
