<?xml version="1.0" encoding="UTF-8"?>
<svg xmlns="http://www.w3.org/2000/svg" xmlns:xlink="http://www.w3.org/1999/xlink" width="1920" height="1080" viewBox="0 0 1920 1080">
<rect x="-192" y="-108" width="2304" height="1296" fill="rgb(100%, 100%, 100%)" fill-opacity="1"/>
<path fill-rule="evenodd" fill="rgb(0%, 0%, 0%)" fill-opacity="1" d="M 0 1080 L 0 0 L 222 0 L 222 1080 Z M 0 1080 "/>
<path fill-rule="evenodd" fill="rgb(35.699463%, 60.798645%, 83.499146%)" fill-opacity="1" d="M 269.238281 66 L 1867.359375 66 L 1867.359375 7.601562 L 269.238281 7.601562 Z M 269.238281 66 "/>
<path fill-rule="evenodd" fill="rgb(0%, 0%, 0%)" fill-opacity="1" d="M 269.238281 124.398438 L 1044.941406 124.398438 L 1044.941406 66 L 269.238281 66 Z M 269.238281 124.398438 "/>
<path fill-rule="evenodd" fill="rgb(0%, 0%, 0%)" fill-opacity="1" d="M 1044.921875 124.398438 L 1393.539062 124.398438 L 1393.539062 66 L 1044.921875 66 Z M 1044.921875 124.398438 "/>
<path fill-rule="evenodd" fill="rgb(0%, 0%, 0%)" fill-opacity="1" d="M 1393.539062 124.398438 L 1867.339844 124.398438 L 1867.339844 66 L 1393.539062 66 Z M 1393.539062 124.398438 "/>
<path fill-rule="evenodd" fill="rgb(91.799927%, 93.699646%, 96.899414%)" fill-opacity="1" d="M 269.238281 182.800781 L 1044.941406 182.800781 L 1044.941406 124.398438 L 269.238281 124.398438 Z M 269.238281 182.800781 "/>
<path fill-rule="evenodd" fill="rgb(91.799927%, 93.699646%, 96.899414%)" fill-opacity="1" d="M 1044.921875 182.800781 L 1393.539062 182.800781 L 1393.539062 124.398438 L 1044.921875 124.398438 Z M 1044.921875 182.800781 "/>
<path fill-rule="evenodd" fill="rgb(91.799927%, 93.699646%, 96.899414%)" fill-opacity="1" d="M 1393.539062 182.800781 L 1867.339844 182.800781 L 1867.339844 124.398438 L 1393.539062 124.398438 Z M 1393.539062 182.800781 "/>
<path fill-rule="evenodd" fill="rgb(82.398987%, 87.098694%, 93.699646%)" fill-opacity="1" d="M 269.238281 241.199219 L 1044.941406 241.199219 L 1044.941406 182.800781 L 269.238281 182.800781 Z M 269.238281 241.199219 "/>
<path fill-rule="evenodd" fill="rgb(82.398987%, 87.098694%, 93.699646%)" fill-opacity="1" d="M 1044.921875 241.199219 L 1393.539062 241.199219 L 1393.539062 182.800781 L 1044.921875 182.800781 Z M 1044.921875 241.199219 "/>
<path fill-rule="evenodd" fill="rgb(82.398987%, 87.098694%, 93.699646%)" fill-opacity="1" d="M 1393.539062 241.199219 L 1867.339844 241.199219 L 1867.339844 182.800781 L 1393.539062 182.800781 Z M 1393.539062 241.199219 "/>
<path fill-rule="evenodd" fill="rgb(91.799927%, 93.699646%, 96.899414%)" fill-opacity="1" d="M 269.238281 299.601562 L 1044.941406 299.601562 L 1044.941406 241.199219 L 269.238281 241.199219 Z M 269.238281 299.601562 "/>
<path fill-rule="evenodd" fill="rgb(91.799927%, 93.699646%, 96.899414%)" fill-opacity="1" d="M 1044.921875 299.601562 L 1393.539062 299.601562 L 1393.539062 241.199219 L 1044.921875 241.199219 Z M 1044.921875 299.601562 "/>
<path fill-rule="evenodd" fill="rgb(91.799927%, 93.699646%, 96.899414%)" fill-opacity="1" d="M 1393.539062 299.601562 L 1867.339844 299.601562 L 1867.339844 241.199219 L 1393.539062 241.199219 Z M 1393.539062 299.601562 "/>
<path fill-rule="evenodd" fill="rgb(82.398987%, 87.098694%, 93.699646%)" fill-opacity="1" d="M 269.238281 352.398438 L 1044.941406 352.398438 L 1044.941406 299.601562 L 269.238281 299.601562 Z M 269.238281 352.398438 "/>
<path fill-rule="evenodd" fill="rgb(82.398987%, 87.098694%, 93.699646%)" fill-opacity="1" d="M 1044.921875 352.398438 L 1393.539062 352.398438 L 1393.539062 299.601562 L 1044.921875 299.601562 Z M 1044.921875 352.398438 "/>
<path fill-rule="evenodd" fill="rgb(82.398987%, 87.098694%, 93.699646%)" fill-opacity="1" d="M 1393.539062 352.398438 L 1867.339844 352.398438 L 1867.339844 299.601562 L 1393.539062 299.601562 Z M 1393.539062 352.398438 "/>
<path fill-rule="evenodd" fill="rgb(91.799927%, 93.699646%, 96.899414%)" fill-opacity="1" d="M 269.238281 405.199219 L 1044.941406 405.199219 L 1044.941406 352.398438 L 269.238281 352.398438 Z M 269.238281 405.199219 "/>
<path fill-rule="evenodd" fill="rgb(91.799927%, 93.699646%, 96.899414%)" fill-opacity="1" d="M 1044.921875 405.199219 L 1393.539062 405.199219 L 1393.539062 352.398438 L 1044.921875 352.398438 Z M 1044.921875 405.199219 "/>
<path fill-rule="evenodd" fill="rgb(91.799927%, 93.699646%, 96.899414%)" fill-opacity="1" d="M 1393.539062 405.199219 L 1867.339844 405.199219 L 1867.339844 352.398438 L 1393.539062 352.398438 Z M 1393.539062 405.199219 "/>
<path fill-rule="evenodd" fill="rgb(82.398987%, 87.098694%, 93.699646%)" fill-opacity="1" d="M 269.238281 458 L 1044.941406 458 L 1044.941406 405.199219 L 269.238281 405.199219 Z M 269.238281 458 "/>
<path fill-rule="evenodd" fill="rgb(82.398987%, 87.098694%, 93.699646%)" fill-opacity="1" d="M 1044.921875 458 L 1393.539062 458 L 1393.539062 405.199219 L 1044.921875 405.199219 Z M 1044.921875 458 "/>
<path fill-rule="evenodd" fill="rgb(82.398987%, 87.098694%, 93.699646%)" fill-opacity="1" d="M 1393.539062 458 L 1867.339844 458 L 1867.339844 405.199219 L 1393.539062 405.199219 Z M 1393.539062 458 "/>
<path fill-rule="evenodd" fill="rgb(91.799927%, 93.699646%, 96.899414%)" fill-opacity="1" d="M 269.238281 510.800781 L 1044.941406 510.800781 L 1044.941406 458 L 269.238281 458 Z M 269.238281 510.800781 "/>
<path fill-rule="evenodd" fill="rgb(91.799927%, 93.699646%, 96.899414%)" fill-opacity="1" d="M 1044.921875 510.800781 L 1393.539062 510.800781 L 1393.539062 458 L 1044.921875 458 Z M 1044.921875 510.800781 "/>
<path fill-rule="evenodd" fill="rgb(91.799927%, 93.699646%, 96.899414%)" fill-opacity="1" d="M 1393.539062 510.800781 L 1867.339844 510.800781 L 1867.339844 458 L 1393.539062 458 Z M 1393.539062 510.800781 "/>
<path fill-rule="evenodd" fill="rgb(82.398987%, 87.098694%, 93.699646%)" fill-opacity="1" d="M 269.238281 602 L 1044.941406 602 L 1044.941406 510.800781 L 269.238281 510.800781 Z M 269.238281 602 "/>
<path fill-rule="evenodd" fill="rgb(82.398987%, 87.098694%, 93.699646%)" fill-opacity="1" d="M 1044.921875 602 L 1393.539062 602 L 1393.539062 510.800781 L 1044.921875 510.800781 Z M 1044.921875 602 "/>
<path fill-rule="evenodd" fill="rgb(82.398987%, 87.098694%, 93.699646%)" fill-opacity="1" d="M 1393.539062 602 L 1867.339844 602 L 1867.339844 510.800781 L 1393.539062 510.800781 Z M 1393.539062 602 "/>
<path fill-rule="evenodd" fill="rgb(91.799927%, 93.699646%, 96.899414%)" fill-opacity="1" d="M 269.238281 654.800781 L 1044.941406 654.800781 L 1044.941406 602 L 269.238281 602 Z M 269.238281 654.800781 "/>
<path fill-rule="evenodd" fill="rgb(91.799927%, 93.699646%, 96.899414%)" fill-opacity="1" d="M 1044.921875 654.800781 L 1393.539062 654.800781 L 1393.539062 602 L 1044.921875 602 Z M 1044.921875 654.800781 "/>
<path fill-rule="evenodd" fill="rgb(91.799927%, 93.699646%, 96.899414%)" fill-opacity="1" d="M 1393.539062 654.800781 L 1867.339844 654.800781 L 1867.339844 602 L 1393.539062 602 Z M 1393.539062 654.800781 "/>
<path fill-rule="evenodd" fill="rgb(82.398987%, 87.098694%, 93.699646%)" fill-opacity="1" d="M 269.238281 707.601562 L 1044.941406 707.601562 L 1044.941406 654.800781 L 269.238281 654.800781 Z M 269.238281 707.601562 "/>
<path fill-rule="evenodd" fill="rgb(82.398987%, 87.098694%, 93.699646%)" fill-opacity="1" d="M 1044.921875 707.601562 L 1393.539062 707.601562 L 1393.539062 654.800781 L 1044.921875 654.800781 Z M 1044.921875 707.601562 "/>
<path fill-rule="evenodd" fill="rgb(82.398987%, 87.098694%, 93.699646%)" fill-opacity="1" d="M 1393.539062 707.601562 L 1867.339844 707.601562 L 1867.339844 654.800781 L 1393.539062 654.800781 Z M 1393.539062 707.601562 "/>
<path fill-rule="evenodd" fill="rgb(91.799927%, 93.699646%, 96.899414%)" fill-opacity="1" d="M 269.238281 760.398438 L 1044.941406 760.398438 L 1044.941406 707.601562 L 269.238281 707.601562 Z M 269.238281 760.398438 "/>
<path fill-rule="evenodd" fill="rgb(91.799927%, 93.699646%, 96.899414%)" fill-opacity="1" d="M 1044.921875 760.398438 L 1393.539062 760.398438 L 1393.539062 707.601562 L 1044.921875 707.601562 Z M 1044.921875 760.398438 "/>
<path fill-rule="evenodd" fill="rgb(91.799927%, 93.699646%, 96.899414%)" fill-opacity="1" d="M 1393.539062 760.398438 L 1867.339844 760.398438 L 1867.339844 707.601562 L 1393.539062 707.601562 Z M 1393.539062 760.398438 "/>
<path fill-rule="evenodd" fill="rgb(82.398987%, 87.098694%, 93.699646%)" fill-opacity="1" d="M 269.238281 813.199219 L 1044.941406 813.199219 L 1044.941406 760.398438 L 269.238281 760.398438 Z M 269.238281 813.199219 "/>
<path fill-rule="evenodd" fill="rgb(82.398987%, 87.098694%, 93.699646%)" fill-opacity="1" d="M 1044.921875 813.199219 L 1393.539062 813.199219 L 1393.539062 760.398438 L 1044.921875 760.398438 Z M 1044.921875 813.199219 "/>
<path fill-rule="evenodd" fill="rgb(82.398987%, 87.098694%, 93.699646%)" fill-opacity="1" d="M 1393.539062 813.199219 L 1867.339844 813.199219 L 1867.339844 760.398438 L 1393.539062 760.398438 Z M 1393.539062 813.199219 "/>
<path fill-rule="evenodd" fill="rgb(91.799927%, 93.699646%, 96.899414%)" fill-opacity="1" d="M 269.238281 866 L 1044.941406 866 L 1044.941406 813.199219 L 269.238281 813.199219 Z M 269.238281 866 "/>
<path fill-rule="evenodd" fill="rgb(91.799927%, 93.699646%, 96.899414%)" fill-opacity="1" d="M 1044.921875 866 L 1393.539062 866 L 1393.539062 813.199219 L 1044.921875 813.199219 Z M 1044.921875 866 "/>
<path fill-rule="evenodd" fill="rgb(91.799927%, 93.699646%, 96.899414%)" fill-opacity="1" d="M 1393.539062 866 L 1867.339844 866 L 1867.339844 813.199219 L 1393.539062 813.199219 Z M 1393.539062 866 "/>
<path fill-rule="evenodd" fill="rgb(82.398987%, 87.098694%, 93.699646%)" fill-opacity="1" d="M 269.238281 918.808594 L 1044.941406 918.808594 L 1044.941406 866.007812 L 269.238281 866.007812 Z M 269.238281 918.808594 "/>
<path fill-rule="evenodd" fill="rgb(82.398987%, 87.098694%, 93.699646%)" fill-opacity="1" d="M 1044.921875 918.808594 L 1393.539062 918.808594 L 1393.539062 866.007812 L 1044.921875 866.007812 Z M 1044.921875 918.808594 "/>
<path fill-rule="evenodd" fill="rgb(82.398987%, 87.098694%, 93.699646%)" fill-opacity="1" d="M 1393.539062 918.808594 L 1867.339844 918.808594 L 1867.339844 866.007812 L 1393.539062 866.007812 Z M 1393.539062 918.808594 "/>
<path fill="none" stroke-width="1" stroke-linecap="butt" stroke-linejoin="round" stroke="rgb(100%, 100%, 100%)" stroke-opacity="1" stroke-miterlimit="10" d="M 522.460938 508.5 L 522.460938 80.095703 " transform="matrix(2, 0, 0, -2, 0, 1080)"/>
<path fill="none" stroke-width="1" stroke-linecap="butt" stroke-linejoin="round" stroke="rgb(100%, 100%, 100%)" stroke-opacity="1" stroke-miterlimit="10" d="M 696.769531 508.5 L 696.769531 80.095703 " transform="matrix(2, 0, 0, -2, 0, 1080)"/>
<path fill="none" stroke-width="3" stroke-linecap="butt" stroke-linejoin="round" stroke="rgb(100%, 100%, 100%)" stroke-opacity="1" stroke-miterlimit="10" d="M 134.119141 507 L 934.179688 507 " transform="matrix(2, 0, 0, -2, 0, 1080)"/>
<path fill="none" stroke-width="1" stroke-linecap="butt" stroke-linejoin="round" stroke="rgb(100%, 100%, 100%)" stroke-opacity="1" stroke-miterlimit="10" d="M 134.119141 477.800781 L 934.179688 477.800781 " transform="matrix(2, 0, 0, -2, 0, 1080)"/>
<path fill="none" stroke-width="1" stroke-linecap="butt" stroke-linejoin="round" stroke="rgb(100%, 100%, 100%)" stroke-opacity="1" stroke-miterlimit="10" d="M 134.119141 448.599609 L 934.179688 448.599609 " transform="matrix(2, 0, 0, -2, 0, 1080)"/>
<path fill="none" stroke-width="1" stroke-linecap="butt" stroke-linejoin="round" stroke="rgb(100%, 100%, 100%)" stroke-opacity="1" stroke-miterlimit="10" d="M 134.119141 419.400391 L 934.179688 419.400391 " transform="matrix(2, 0, 0, -2, 0, 1080)"/>
<path fill="none" stroke-width="1" stroke-linecap="butt" stroke-linejoin="round" stroke="rgb(100%, 100%, 100%)" stroke-opacity="1" stroke-miterlimit="10" d="M 134.119141 390.199219 L 934.179688 390.199219 " transform="matrix(2, 0, 0, -2, 0, 1080)"/>
<path fill="none" stroke-width="1" stroke-linecap="butt" stroke-linejoin="round" stroke="rgb(100%, 100%, 100%)" stroke-opacity="1" stroke-miterlimit="10" d="M 134.119141 363.800781 L 934.179688 363.800781 " transform="matrix(2, 0, 0, -2, 0, 1080)"/>
<path fill="none" stroke-width="1" stroke-linecap="butt" stroke-linejoin="round" stroke="rgb(100%, 100%, 100%)" stroke-opacity="1" stroke-miterlimit="10" d="M 134.119141 337.400391 L 934.179688 337.400391 " transform="matrix(2, 0, 0, -2, 0, 1080)"/>
<path fill="none" stroke-width="1" stroke-linecap="butt" stroke-linejoin="round" stroke="rgb(100%, 100%, 100%)" stroke-opacity="1" stroke-miterlimit="10" d="M 134.119141 311 L 934.179688 311 " transform="matrix(2, 0, 0, -2, 0, 1080)"/>
<path fill="none" stroke-width="1" stroke-linecap="butt" stroke-linejoin="round" stroke="rgb(100%, 100%, 100%)" stroke-opacity="1" stroke-miterlimit="10" d="M 134.119141 284.599609 L 934.179688 284.599609 " transform="matrix(2, 0, 0, -2, 0, 1080)"/>
<path fill="none" stroke-width="1" stroke-linecap="butt" stroke-linejoin="round" stroke="rgb(100%, 100%, 100%)" stroke-opacity="1" stroke-miterlimit="10" d="M 134.119141 239 L 934.179688 239 " transform="matrix(2, 0, 0, -2, 0, 1080)"/>
<path fill="none" stroke-width="1" stroke-linecap="butt" stroke-linejoin="round" stroke="rgb(100%, 100%, 100%)" stroke-opacity="1" stroke-miterlimit="10" d="M 134.119141 212.599609 L 934.179688 212.599609 " transform="matrix(2, 0, 0, -2, 0, 1080)"/>
<path fill="none" stroke-width="1" stroke-linecap="butt" stroke-linejoin="round" stroke="rgb(100%, 100%, 100%)" stroke-opacity="1" stroke-miterlimit="10" d="M 134.119141 186.199219 L 934.179688 186.199219 " transform="matrix(2, 0, 0, -2, 0, 1080)"/>
<path fill="none" stroke-width="1" stroke-linecap="butt" stroke-linejoin="round" stroke="rgb(100%, 100%, 100%)" stroke-opacity="1" stroke-miterlimit="10" d="M 134.119141 159.800781 L 934.179688 159.800781 " transform="matrix(2, 0, 0, -2, 0, 1080)"/>
<path fill="none" stroke-width="1" stroke-linecap="butt" stroke-linejoin="round" stroke="rgb(100%, 100%, 100%)" stroke-opacity="1" stroke-miterlimit="10" d="M 134.119141 133.400391 L 934.179688 133.400391 " transform="matrix(2, 0, 0, -2, 0, 1080)"/>
<path fill="none" stroke-width="1" stroke-linecap="butt" stroke-linejoin="round" stroke="rgb(100%, 100%, 100%)" stroke-opacity="1" stroke-miterlimit="10" d="M 134.119141 107 L 934.179688 107 " transform="matrix(2, 0, 0, -2, 0, 1080)"/>
<path fill="none" stroke-width="1" stroke-linecap="butt" stroke-linejoin="round" stroke="rgb(100%, 100%, 100%)" stroke-opacity="1" stroke-miterlimit="10" d="M 134.619141 536.699219 L 134.619141 80.095703 " transform="matrix(2, 0, 0, -2, 0, 1080)"/>
<path fill="none" stroke-width="1" stroke-linecap="butt" stroke-linejoin="round" stroke="rgb(100%, 100%, 100%)" stroke-opacity="1" stroke-miterlimit="10" d="M 933.679688 536.699219 L 933.679688 80.095703 " transform="matrix(2, 0, 0, -2, 0, 1080)"/>
<path fill="none" stroke-width="1" stroke-linecap="butt" stroke-linejoin="round" stroke="rgb(100%, 100%, 100%)" stroke-opacity="1" stroke-miterlimit="10" d="M 134.119141 536.199219 L 934.179688 536.199219 " transform="matrix(2, 0, 0, -2, 0, 1080)"/>
<path fill="none" stroke-width="1" stroke-linecap="butt" stroke-linejoin="round" stroke="rgb(100%, 100%, 100%)" stroke-opacity="1" stroke-miterlimit="10" d="M 134.119141 80.595703 L 934.179688 80.595703 " transform="matrix(2, 0, 0, -2, 0, 1080)"/>
</svg>
