<?xml version="1.0" encoding="UTF-8"?>
<svg xmlns="http://www.w3.org/2000/svg" xmlns:xlink="http://www.w3.org/1999/xlink" width="1920" height="1080" viewBox="0 0 1920 1080">
<rect x="-192" y="-108" width="2304" height="1296" fill="rgb(100%, 100%, 100%)" fill-opacity="1"/>
<path fill-rule="evenodd" fill="rgb(0%, 0%, 0%)" fill-opacity="1" d="M 0 1080 L 0 0 L 222 0 L 222 1080 Z M 0 1080 "/>
<path fill-rule="evenodd" fill="rgb(35.699463%, 60.798645%, 83.499146%)" fill-opacity="1" d="M 269.238281 58.398438 L 1867.359375 58.398438 L 1867.359375 0 L 269.238281 0 Z M 269.238281 58.398438 "/>
<path fill-rule="evenodd" fill="rgb(0%, 0%, 0%)" fill-opacity="1" d="M 269.238281 116.800781 L 1004.320312 116.800781 L 1004.320312 58.398438 L 269.238281 58.398438 Z M 269.238281 116.800781 "/>
<path fill-rule="evenodd" fill="rgb(0%, 0%, 0%)" fill-opacity="1" d="M 1004.300781 116.800781 L 1393.539062 116.800781 L 1393.539062 58.398438 L 1004.300781 58.398438 Z M 1004.300781 116.800781 "/>
<path fill-rule="evenodd" fill="rgb(0%, 0%, 0%)" fill-opacity="1" d="M 1393.539062 116.800781 L 1867.339844 116.800781 L 1867.339844 58.398438 L 1393.539062 58.398438 Z M 1393.539062 116.800781 "/>
<path fill-rule="evenodd" fill="rgb(91.799927%, 93.699646%, 96.899414%)" fill-opacity="1" d="M 269.238281 164.800781 L 1004.320312 164.800781 L 1004.320312 116.800781 L 269.238281 116.800781 Z M 269.238281 164.800781 "/>
<path fill-rule="evenodd" fill="rgb(91.799927%, 93.699646%, 96.899414%)" fill-opacity="1" d="M 1004.300781 164.800781 L 1393.539062 164.800781 L 1393.539062 116.800781 L 1004.300781 116.800781 Z M 1004.300781 164.800781 "/>
<path fill-rule="evenodd" fill="rgb(91.799927%, 93.699646%, 96.899414%)" fill-opacity="1" d="M 1393.539062 164.800781 L 1867.339844 164.800781 L 1867.339844 116.800781 L 1393.539062 116.800781 Z M 1393.539062 164.800781 "/>
<path fill-rule="evenodd" fill="rgb(82.398987%, 87.098694%, 93.699646%)" fill-opacity="1" d="M 269.238281 212.800781 L 1004.320312 212.800781 L 1004.320312 164.800781 L 269.238281 164.800781 Z M 269.238281 212.800781 "/>
<path fill-rule="evenodd" fill="rgb(82.398987%, 87.098694%, 93.699646%)" fill-opacity="1" d="M 1004.300781 212.800781 L 1393.539062 212.800781 L 1393.539062 164.800781 L 1004.300781 164.800781 Z M 1004.300781 212.800781 "/>
<path fill-rule="evenodd" fill="rgb(82.398987%, 87.098694%, 93.699646%)" fill-opacity="1" d="M 1393.539062 212.800781 L 1867.339844 212.800781 L 1867.339844 164.800781 L 1393.539062 164.800781 Z M 1393.539062 212.800781 "/>
<path fill-rule="evenodd" fill="rgb(91.799927%, 93.699646%, 96.899414%)" fill-opacity="1" d="M 269.238281 260.800781 L 1004.320312 260.800781 L 1004.320312 212.800781 L 269.238281 212.800781 Z M 269.238281 260.800781 "/>
<path fill-rule="evenodd" fill="rgb(91.799927%, 93.699646%, 96.899414%)" fill-opacity="1" d="M 1004.300781 260.800781 L 1393.539062 260.800781 L 1393.539062 212.800781 L 1004.300781 212.800781 Z M 1004.300781 260.800781 "/>
<path fill-rule="evenodd" fill="rgb(91.799927%, 93.699646%, 96.899414%)" fill-opacity="1" d="M 1393.539062 260.800781 L 1867.339844 260.800781 L 1867.339844 212.800781 L 1393.539062 212.800781 Z M 1393.539062 260.800781 "/>
<path fill-rule="evenodd" fill="rgb(82.398987%, 87.098694%, 93.699646%)" fill-opacity="1" d="M 269.238281 308.800781 L 1004.320312 308.800781 L 1004.320312 260.800781 L 269.238281 260.800781 Z M 269.238281 308.800781 "/>
<path fill-rule="evenodd" fill="rgb(82.398987%, 87.098694%, 93.699646%)" fill-opacity="1" d="M 1004.300781 308.800781 L 1393.539062 308.800781 L 1393.539062 260.800781 L 1004.300781 260.800781 Z M 1004.300781 308.800781 "/>
<path fill-rule="evenodd" fill="rgb(82.398987%, 87.098694%, 93.699646%)" fill-opacity="1" d="M 1393.539062 308.800781 L 1867.339844 308.800781 L 1867.339844 260.800781 L 1393.539062 260.800781 Z M 1393.539062 308.800781 "/>
<path fill-rule="evenodd" fill="rgb(91.799927%, 93.699646%, 96.899414%)" fill-opacity="1" d="M 269.238281 356.800781 L 1004.320312 356.800781 L 1004.320312 308.800781 L 269.238281 308.800781 Z M 269.238281 356.800781 "/>
<path fill-rule="evenodd" fill="rgb(91.799927%, 93.699646%, 96.899414%)" fill-opacity="1" d="M 1004.300781 356.800781 L 1393.539062 356.800781 L 1393.539062 308.800781 L 1004.300781 308.800781 Z M 1004.300781 356.800781 "/>
<path fill-rule="evenodd" fill="rgb(91.799927%, 93.699646%, 96.899414%)" fill-opacity="1" d="M 1393.539062 356.800781 L 1867.339844 356.800781 L 1867.339844 308.800781 L 1393.539062 308.800781 Z M 1393.539062 356.800781 "/>
<path fill-rule="evenodd" fill="rgb(82.398987%, 87.098694%, 93.699646%)" fill-opacity="1" d="M 269.238281 404.800781 L 1004.320312 404.800781 L 1004.320312 356.800781 L 269.238281 356.800781 Z M 269.238281 404.800781 "/>
<path fill-rule="evenodd" fill="rgb(82.398987%, 87.098694%, 93.699646%)" fill-opacity="1" d="M 1004.300781 404.800781 L 1393.539062 404.800781 L 1393.539062 356.800781 L 1004.300781 356.800781 Z M 1004.300781 404.800781 "/>
<path fill-rule="evenodd" fill="rgb(82.398987%, 87.098694%, 93.699646%)" fill-opacity="1" d="M 1393.539062 404.800781 L 1867.339844 404.800781 L 1867.339844 356.800781 L 1393.539062 356.800781 Z M 1393.539062 404.800781 "/>
<path fill-rule="evenodd" fill="rgb(91.799927%, 93.699646%, 96.899414%)" fill-opacity="1" d="M 269.238281 456.558594 L 1004.320312 456.558594 L 1004.320312 404.800781 L 269.238281 404.800781 Z M 269.238281 456.558594 "/>
<path fill-rule="evenodd" fill="rgb(91.799927%, 93.699646%, 96.899414%)" fill-opacity="1" d="M 1004.300781 456.558594 L 1393.539062 456.558594 L 1393.539062 404.800781 L 1004.300781 404.800781 Z M 1004.300781 456.558594 "/>
<path fill-rule="evenodd" fill="rgb(91.799927%, 93.699646%, 96.899414%)" fill-opacity="1" d="M 1393.539062 456.558594 L 1867.339844 456.558594 L 1867.339844 404.800781 L 1393.539062 404.800781 Z M 1393.539062 456.558594 "/>
<path fill-rule="evenodd" fill="rgb(82.398987%, 87.098694%, 93.699646%)" fill-opacity="1" d="M 269.238281 504.558594 L 1004.320312 504.558594 L 1004.320312 456.558594 L 269.238281 456.558594 Z M 269.238281 504.558594 "/>
<path fill-rule="evenodd" fill="rgb(82.398987%, 87.098694%, 93.699646%)" fill-opacity="1" d="M 1004.300781 504.558594 L 1393.539062 504.558594 L 1393.539062 456.558594 L 1004.300781 456.558594 Z M 1004.300781 504.558594 "/>
<path fill-rule="evenodd" fill="rgb(82.398987%, 87.098694%, 93.699646%)" fill-opacity="1" d="M 1393.539062 504.558594 L 1867.339844 504.558594 L 1867.339844 456.558594 L 1393.539062 456.558594 Z M 1393.539062 504.558594 "/>
<path fill-rule="evenodd" fill="rgb(91.799927%, 93.699646%, 96.899414%)" fill-opacity="1" d="M 269.238281 552.558594 L 1004.320312 552.558594 L 1004.320312 504.558594 L 269.238281 504.558594 Z M 269.238281 552.558594 "/>
<path fill-rule="evenodd" fill="rgb(91.799927%, 93.699646%, 96.899414%)" fill-opacity="1" d="M 1004.300781 552.558594 L 1393.539062 552.558594 L 1393.539062 504.558594 L 1004.300781 504.558594 Z M 1004.300781 552.558594 "/>
<path fill-rule="evenodd" fill="rgb(91.799927%, 93.699646%, 96.899414%)" fill-opacity="1" d="M 1393.539062 552.558594 L 1867.339844 552.558594 L 1867.339844 504.558594 L 1393.539062 504.558594 Z M 1393.539062 552.558594 "/>
<path fill-rule="evenodd" fill="rgb(82.398987%, 87.098694%, 93.699646%)" fill-opacity="1" d="M 269.238281 600.558594 L 1004.320312 600.558594 L 1004.320312 552.558594 L 269.238281 552.558594 Z M 269.238281 600.558594 "/>
<path fill-rule="evenodd" fill="rgb(82.398987%, 87.098694%, 93.699646%)" fill-opacity="1" d="M 1004.300781 600.558594 L 1393.539062 600.558594 L 1393.539062 552.558594 L 1004.300781 552.558594 Z M 1004.300781 600.558594 "/>
<path fill-rule="evenodd" fill="rgb(82.398987%, 87.098694%, 93.699646%)" fill-opacity="1" d="M 1393.539062 600.558594 L 1867.339844 600.558594 L 1867.339844 552.558594 L 1393.539062 552.558594 Z M 1393.539062 600.558594 "/>
<path fill-rule="evenodd" fill="rgb(91.799927%, 93.699646%, 96.899414%)" fill-opacity="1" d="M 269.238281 648.558594 L 1004.320312 648.558594 L 1004.320312 600.558594 L 269.238281 600.558594 Z M 269.238281 648.558594 "/>
<path fill-rule="evenodd" fill="rgb(91.799927%, 93.699646%, 96.899414%)" fill-opacity="1" d="M 1004.300781 648.558594 L 1393.539062 648.558594 L 1393.539062 600.558594 L 1004.300781 600.558594 Z M 1004.300781 648.558594 "/>
<path fill-rule="evenodd" fill="rgb(91.799927%, 93.699646%, 96.899414%)" fill-opacity="1" d="M 1393.539062 648.558594 L 1867.339844 648.558594 L 1867.339844 600.558594 L 1393.539062 600.558594 Z M 1393.539062 648.558594 "/>
<path fill-rule="evenodd" fill="rgb(82.398987%, 87.098694%, 93.699646%)" fill-opacity="1" d="M 269.238281 696.558594 L 1004.320312 696.558594 L 1004.320312 648.558594 L 269.238281 648.558594 Z M 269.238281 696.558594 "/>
<path fill-rule="evenodd" fill="rgb(82.398987%, 87.098694%, 93.699646%)" fill-opacity="1" d="M 1004.300781 696.558594 L 1393.539062 696.558594 L 1393.539062 648.558594 L 1004.300781 648.558594 Z M 1004.300781 696.558594 "/>
<path fill-rule="evenodd" fill="rgb(82.398987%, 87.098694%, 93.699646%)" fill-opacity="1" d="M 1393.539062 696.558594 L 1867.339844 696.558594 L 1867.339844 648.558594 L 1393.539062 648.558594 Z M 1393.539062 696.558594 "/>
<path fill-rule="evenodd" fill="rgb(91.799927%, 93.699646%, 96.899414%)" fill-opacity="1" d="M 269.238281 744.558594 L 1004.320312 744.558594 L 1004.320312 696.558594 L 269.238281 696.558594 Z M 269.238281 744.558594 "/>
<path fill-rule="evenodd" fill="rgb(91.799927%, 93.699646%, 96.899414%)" fill-opacity="1" d="M 1004.300781 744.558594 L 1393.539062 744.558594 L 1393.539062 696.558594 L 1004.300781 696.558594 Z M 1004.300781 744.558594 "/>
<path fill-rule="evenodd" fill="rgb(91.799927%, 93.699646%, 96.899414%)" fill-opacity="1" d="M 1393.539062 744.558594 L 1867.339844 744.558594 L 1867.339844 696.558594 L 1393.539062 696.558594 Z M 1393.539062 744.558594 "/>
<path fill-rule="evenodd" fill="rgb(82.398987%, 87.098694%, 93.699646%)" fill-opacity="1" d="M 269.238281 792.558594 L 1004.320312 792.558594 L 1004.320312 744.558594 L 269.238281 744.558594 Z M 269.238281 792.558594 "/>
<path fill-rule="evenodd" fill="rgb(82.398987%, 87.098694%, 93.699646%)" fill-opacity="1" d="M 1004.300781 792.558594 L 1393.539062 792.558594 L 1393.539062 744.558594 L 1004.300781 744.558594 Z M 1004.300781 792.558594 "/>
<path fill-rule="evenodd" fill="rgb(82.398987%, 87.098694%, 93.699646%)" fill-opacity="1" d="M 1393.539062 792.558594 L 1867.339844 792.558594 L 1867.339844 744.558594 L 1393.539062 744.558594 Z M 1393.539062 792.558594 "/>
<path fill-rule="evenodd" fill="rgb(91.799927%, 93.699646%, 96.899414%)" fill-opacity="1" d="M 269.238281 840.558594 L 1004.320312 840.558594 L 1004.320312 792.558594 L 269.238281 792.558594 Z M 269.238281 840.558594 "/>
<path fill-rule="evenodd" fill="rgb(91.799927%, 93.699646%, 96.899414%)" fill-opacity="1" d="M 1004.300781 840.558594 L 1393.539062 840.558594 L 1393.539062 792.558594 L 1004.300781 792.558594 Z M 1004.300781 840.558594 "/>
<path fill-rule="evenodd" fill="rgb(91.799927%, 93.699646%, 96.899414%)" fill-opacity="1" d="M 1393.539062 840.558594 L 1867.339844 840.558594 L 1867.339844 792.558594 L 1393.539062 792.558594 Z M 1393.539062 840.558594 "/>
<path fill-rule="evenodd" fill="rgb(82.398987%, 87.098694%, 93.699646%)" fill-opacity="1" d="M 269.238281 888.558594 L 1004.320312 888.558594 L 1004.320312 840.558594 L 269.238281 840.558594 Z M 269.238281 888.558594 "/>
<path fill-rule="evenodd" fill="rgb(82.398987%, 87.098694%, 93.699646%)" fill-opacity="1" d="M 1004.300781 888.558594 L 1393.539062 888.558594 L 1393.539062 840.558594 L 1004.300781 840.558594 Z M 1004.300781 888.558594 "/>
<path fill-rule="evenodd" fill="rgb(82.398987%, 87.098694%, 93.699646%)" fill-opacity="1" d="M 1393.539062 888.558594 L 1867.339844 888.558594 L 1867.339844 840.558594 L 1393.539062 840.558594 Z M 1393.539062 888.558594 "/>
<path fill-rule="evenodd" fill="rgb(91.799927%, 93.699646%, 96.899414%)" fill-opacity="1" d="M 269.238281 936.558594 L 1004.320312 936.558594 L 1004.320312 888.558594 L 269.238281 888.558594 Z M 269.238281 936.558594 "/>
<path fill-rule="evenodd" fill="rgb(91.799927%, 93.699646%, 96.899414%)" fill-opacity="1" d="M 1004.300781 936.558594 L 1393.539062 936.558594 L 1393.539062 888.558594 L 1004.300781 888.558594 Z M 1004.300781 936.558594 "/>
<path fill-rule="evenodd" fill="rgb(91.799927%, 93.699646%, 96.899414%)" fill-opacity="1" d="M 1393.539062 936.558594 L 1867.339844 936.558594 L 1867.339844 888.558594 L 1393.539062 888.558594 Z M 1393.539062 936.558594 "/>
<path fill-rule="evenodd" fill="rgb(82.398987%, 87.098694%, 93.699646%)" fill-opacity="1" d="M 269.238281 984.558594 L 1004.320312 984.558594 L 1004.320312 936.558594 L 269.238281 936.558594 Z M 269.238281 984.558594 "/>
<path fill-rule="evenodd" fill="rgb(82.398987%, 87.098694%, 93.699646%)" fill-opacity="1" d="M 1004.300781 984.558594 L 1393.539062 984.558594 L 1393.539062 936.558594 L 1004.300781 936.558594 Z M 1004.300781 984.558594 "/>
<path fill-rule="evenodd" fill="rgb(82.398987%, 87.098694%, 93.699646%)" fill-opacity="1" d="M 1393.539062 984.558594 L 1867.339844 984.558594 L 1867.339844 936.558594 L 1393.539062 936.558594 Z M 1393.539062 984.558594 "/>
<path fill="none" stroke-width="1" stroke-linecap="butt" stroke-linejoin="round" stroke="rgb(100%, 100%, 100%)" stroke-opacity="1" stroke-miterlimit="10" d="M 502.150391 512.300781 L 502.150391 47.220703 " transform="matrix(2, 0, 0, -2, 0, 1080)"/>
<path fill="none" stroke-width="1" stroke-linecap="butt" stroke-linejoin="round" stroke="rgb(100%, 100%, 100%)" stroke-opacity="1" stroke-miterlimit="10" d="M 696.769531 512.300781 L 696.769531 47.220703 " transform="matrix(2, 0, 0, -2, 0, 1080)"/>
<path fill="none" stroke-width="3" stroke-linecap="butt" stroke-linejoin="round" stroke="rgb(100%, 100%, 100%)" stroke-opacity="1" stroke-miterlimit="10" d="M 134.119141 510.800781 L 934.179688 510.800781 " transform="matrix(2, 0, 0, -2, 0, 1080)"/>
<path fill="none" stroke-width="1" stroke-linecap="butt" stroke-linejoin="round" stroke="rgb(100%, 100%, 100%)" stroke-opacity="1" stroke-miterlimit="10" d="M 134.119141 481.599609 L 934.179688 481.599609 " transform="matrix(2, 0, 0, -2, 0, 1080)"/>
<path fill="none" stroke-width="1" stroke-linecap="butt" stroke-linejoin="round" stroke="rgb(100%, 100%, 100%)" stroke-opacity="1" stroke-miterlimit="10" d="M 134.119141 457.599609 L 934.179688 457.599609 " transform="matrix(2, 0, 0, -2, 0, 1080)"/>
<path fill="none" stroke-width="1" stroke-linecap="butt" stroke-linejoin="round" stroke="rgb(100%, 100%, 100%)" stroke-opacity="1" stroke-miterlimit="10" d="M 134.119141 433.599609 L 934.179688 433.599609 " transform="matrix(2, 0, 0, -2, 0, 1080)"/>
<path fill="none" stroke-width="1" stroke-linecap="butt" stroke-linejoin="round" stroke="rgb(100%, 100%, 100%)" stroke-opacity="1" stroke-miterlimit="10" d="M 134.119141 409.599609 L 934.179688 409.599609 " transform="matrix(2, 0, 0, -2, 0, 1080)"/>
<path fill="none" stroke-width="1" stroke-linecap="butt" stroke-linejoin="round" stroke="rgb(100%, 100%, 100%)" stroke-opacity="1" stroke-miterlimit="10" d="M 134.119141 385.599609 L 934.179688 385.599609 " transform="matrix(2, 0, 0, -2, 0, 1080)"/>
<path fill="none" stroke-width="1" stroke-linecap="butt" stroke-linejoin="round" stroke="rgb(100%, 100%, 100%)" stroke-opacity="1" stroke-miterlimit="10" d="M 134.119141 361.599609 L 934.179688 361.599609 " transform="matrix(2, 0, 0, -2, 0, 1080)"/>
<path fill="none" stroke-width="1" stroke-linecap="butt" stroke-linejoin="round" stroke="rgb(100%, 100%, 100%)" stroke-opacity="1" stroke-miterlimit="10" d="M 134.119141 337.599609 L 934.179688 337.599609 " transform="matrix(2, 0, 0, -2, 0, 1080)"/>
<path fill="none" stroke-width="1" stroke-linecap="butt" stroke-linejoin="round" stroke="rgb(100%, 100%, 100%)" stroke-opacity="1" stroke-miterlimit="10" d="M 134.119141 311.720703 L 934.179688 311.720703 " transform="matrix(2, 0, 0, -2, 0, 1080)"/>
<path fill="none" stroke-width="1" stroke-linecap="butt" stroke-linejoin="round" stroke="rgb(100%, 100%, 100%)" stroke-opacity="1" stroke-miterlimit="10" d="M 134.119141 287.720703 L 934.179688 287.720703 " transform="matrix(2, 0, 0, -2, 0, 1080)"/>
<path fill="none" stroke-width="1" stroke-linecap="butt" stroke-linejoin="round" stroke="rgb(100%, 100%, 100%)" stroke-opacity="1" stroke-miterlimit="10" d="M 134.119141 263.720703 L 934.179688 263.720703 " transform="matrix(2, 0, 0, -2, 0, 1080)"/>
<path fill="none" stroke-width="1" stroke-linecap="butt" stroke-linejoin="round" stroke="rgb(100%, 100%, 100%)" stroke-opacity="1" stroke-miterlimit="10" d="M 134.119141 239.720703 L 934.179688 239.720703 " transform="matrix(2, 0, 0, -2, 0, 1080)"/>
<path fill="none" stroke-width="1" stroke-linecap="butt" stroke-linejoin="round" stroke="rgb(100%, 100%, 100%)" stroke-opacity="1" stroke-miterlimit="10" d="M 134.119141 215.720703 L 934.179688 215.720703 " transform="matrix(2, 0, 0, -2, 0, 1080)"/>
<path fill="none" stroke-width="1" stroke-linecap="butt" stroke-linejoin="round" stroke="rgb(100%, 100%, 100%)" stroke-opacity="1" stroke-miterlimit="10" d="M 134.119141 191.720703 L 934.179688 191.720703 " transform="matrix(2, 0, 0, -2, 0, 1080)"/>
<path fill="none" stroke-width="1" stroke-linecap="butt" stroke-linejoin="round" stroke="rgb(100%, 100%, 100%)" stroke-opacity="1" stroke-miterlimit="10" d="M 134.119141 167.720703 L 934.179688 167.720703 " transform="matrix(2, 0, 0, -2, 0, 1080)"/>
<path fill="none" stroke-width="1" stroke-linecap="butt" stroke-linejoin="round" stroke="rgb(100%, 100%, 100%)" stroke-opacity="1" stroke-miterlimit="10" d="M 134.119141 143.720703 L 934.179688 143.720703 " transform="matrix(2, 0, 0, -2, 0, 1080)"/>
<path fill="none" stroke-width="1" stroke-linecap="butt" stroke-linejoin="round" stroke="rgb(100%, 100%, 100%)" stroke-opacity="1" stroke-miterlimit="10" d="M 134.119141 119.720703 L 934.179688 119.720703 " transform="matrix(2, 0, 0, -2, 0, 1080)"/>
<path fill="none" stroke-width="1" stroke-linecap="butt" stroke-linejoin="round" stroke="rgb(100%, 100%, 100%)" stroke-opacity="1" stroke-miterlimit="10" d="M 134.119141 95.720703 L 934.179688 95.720703 " transform="matrix(2, 0, 0, -2, 0, 1080)"/>
<path fill="none" stroke-width="1" stroke-linecap="butt" stroke-linejoin="round" stroke="rgb(100%, 100%, 100%)" stroke-opacity="1" stroke-miterlimit="10" d="M 134.119141 71.720703 L 934.179688 71.720703 " transform="matrix(2, 0, 0, -2, 0, 1080)"/>
<path fill="none" stroke-width="1" stroke-linecap="butt" stroke-linejoin="round" stroke="rgb(100%, 100%, 100%)" stroke-opacity="1" stroke-miterlimit="10" d="M 134.619141 540.5 L 134.619141 47.220703 " transform="matrix(2, 0, 0, -2, 0, 1080)"/>
<path fill="none" stroke-width="1" stroke-linecap="butt" stroke-linejoin="round" stroke="rgb(100%, 100%, 100%)" stroke-opacity="1" stroke-miterlimit="10" d="M 933.679688 540.5 L 933.679688 47.220703 " transform="matrix(2, 0, 0, -2, 0, 1080)"/>
<path fill="none" stroke-width="1" stroke-linecap="butt" stroke-linejoin="round" stroke="rgb(100%, 100%, 100%)" stroke-opacity="1" stroke-miterlimit="10" d="M 134.119141 540 L 934.179688 540 " transform="matrix(2, 0, 0, -2, 0, 1080)"/>
<path fill="none" stroke-width="1" stroke-linecap="butt" stroke-linejoin="round" stroke="rgb(100%, 100%, 100%)" stroke-opacity="1" stroke-miterlimit="10" d="M 134.119141 47.720703 L 934.179688 47.720703 " transform="matrix(2, 0, 0, -2, 0, 1080)"/>
</svg>
