<?xml version="1.0" encoding="UTF-8"?>
<svg xmlns="http://www.w3.org/2000/svg" xmlns:xlink="http://www.w3.org/1999/xlink" width="1920" height="1080" viewBox="0 0 1920 1080">
<rect x="-192" y="-108" width="2304" height="1296" fill="rgb(100%, 100%, 100%)" fill-opacity="1"/>
<path fill-rule="evenodd" fill="rgb(1.959229%, 38.798523%, 75.698853%)" fill-opacity="1" d="M 182.398438 338.140625 L 750.71875 338.140625 L 750.71875 341.5 L 182.398438 341.5 Z M 182.398438 338.140625 "/>
<path fill-rule="evenodd" fill="rgb(1.959229%, 38.798523%, 75.698853%)" fill-opacity="1" d="M 182.398438 407.980469 L 781.441406 407.980469 L 781.441406 411.339844 L 182.398438 411.339844 Z M 182.398438 407.980469 "/>
<path fill-rule="evenodd" fill="rgb(1.959229%, 38.798523%, 75.698853%)" fill-opacity="1" d="M 182.398438 478.058594 L 1181.761719 478.058594 L 1181.761719 481.421875 L 182.398438 481.421875 Z M 182.398438 478.058594 "/>
<path fill-rule="evenodd" fill="rgb(1.959229%, 38.798523%, 75.698853%)" fill-opacity="1" d="M 182.398438 547.898438 L 676.320312 547.898438 L 676.320312 551.261719 L 182.398438 551.261719 Z M 182.398438 547.898438 "/>
<path fill-rule="evenodd" fill="rgb(1.959229%, 38.798523%, 75.698853%)" fill-opacity="1" d="M 182.398438 617.738281 L 953.28125 617.738281 L 953.28125 621.101562 L 182.398438 621.101562 Z M 182.398438 617.738281 "/>
<path fill-rule="evenodd" fill="rgb(1.959229%, 38.798523%, 75.698853%)" fill-opacity="1" d="M 182.398438 691.179688 L 538.078125 691.179688 L 538.078125 687.820312 L 182.398438 687.820312 Z M 182.398438 691.179688 "/>
<path fill-rule="evenodd" fill="rgb(1.959229%, 38.798523%, 75.698853%)" fill-opacity="1" d="M 182.398438 761.019531 L 549.359375 761.019531 L 549.359375 757.660156 L 182.398438 757.660156 Z M 182.398438 761.019531 "/>
<path fill-rule="evenodd" fill="rgb(1.959229%, 38.798523%, 75.698853%)" fill-opacity="1" d="M 182.398438 827.5 L 852.960938 827.5 L 852.960938 830.859375 L 182.398438 830.859375 Z M 182.398438 827.5 "/>
<path fill-rule="evenodd" fill="rgb(1.959229%, 38.798523%, 75.698853%)" fill-opacity="1" d="M 182.398438 897.578125 L 898.558594 897.578125 L 898.558594 900.941406 L 182.398438 900.941406 Z M 182.398438 897.578125 "/>
<path fill-rule="evenodd" fill="rgb(1.959229%, 38.798523%, 75.698853%)" fill-opacity="1" d="M 182.398438 967.421875 L 1088.160156 967.421875 L 1088.160156 970.78125 L 182.398438 970.78125 Z M 182.398438 967.421875 "/>
<path fill-rule="evenodd" fill="rgb(1.959229%, 38.798523%, 75.698853%)" fill-opacity="1" d="M 182.398438 1037.261719 L 815.28125 1037.261719 L 815.28125 1040.621094 L 182.398438 1040.621094 Z M 182.398438 1037.261719 "/>
</svg>
