<?xml version="1.0" encoding="UTF-8"?>
<svg xmlns="http://www.w3.org/2000/svg" xmlns:xlink="http://www.w3.org/1999/xlink" width="1920pt" height="1080pt" viewBox="0 0 1920 1080" version="1.2">
<g id="surface20915">
<rect x="0" y="0" width="1920" height="1080" style="fill:rgb(100%,100%,100%);fill-opacity:1;stroke:none;"/>
<path style=" stroke:none;fill-rule:evenodd;fill:rgb(1.959229%,38.798523%,75.698853%);fill-opacity:1;" d="M 1148.601562 193.378906 L 1222.039062 193.378906 L 1222.039062 192.179688 L 1148.601562 192.179688 Z M 1148.601562 193.378906 "/>
<path style=" stroke:none;fill-rule:evenodd;fill:rgb(0%,0%,0%);fill-opacity:1;" d="M 424.859375 122.640625 L 1495.261719 122.640625 L 1495.261719 128.640625 L 424.859375 128.640625 Z M 424.859375 122.640625 "/>
<path style=" stroke:none;fill-rule:evenodd;fill:rgb(0%,0%,0%);fill-opacity:1;" d="M 103.398438 294.980469 L 249.078125 294.980469 L 249.078125 296.660156 L 103.398438 296.660156 Z M 103.398438 294.980469 "/>
<path style=" stroke:none;fill-rule:evenodd;fill:rgb(0%,0%,0%);fill-opacity:1;" d="M 103.398438 338.179688 L 203.480469 338.179688 L 203.480469 339.859375 L 103.398438 339.859375 Z M 103.398438 338.179688 "/>
<path style=" stroke:none;fill-rule:evenodd;fill:rgb(0%,0%,0%);fill-opacity:1;" d="M 103.398438 381.378906 L 310.519531 381.378906 L 310.519531 383.058594 L 103.398438 383.058594 Z M 103.398438 381.378906 "/>
<path style=" stroke:none;fill-rule:evenodd;fill:rgb(1.959229%,38.798523%,75.698853%);fill-opacity:1;" d="M 103.398438 424.578125 L 242.121094 424.578125 L 242.121094 426.261719 L 103.398438 426.261719 Z M 103.398438 424.578125 "/>
</g>
</svg>
