<?xml version="1.0" encoding="UTF-8"?>
<svg xmlns="http://www.w3.org/2000/svg" xmlns:xlink="http://www.w3.org/1999/xlink" width="1920" height="1080" viewBox="0 0 1920 1080">
<rect x="-192" y="-108" width="2304" height="1296" fill="rgb(100%, 100%, 100%)" fill-opacity="1"/>
<path fill-rule="evenodd" fill="rgb(0%, 0%, 0%)" fill-opacity="1" d="M 0 1080 L 0 0 L 222 0 L 222 1080 Z M 0 1080 "/>
<path fill-rule="evenodd" fill="rgb(0%, 0%, 0%)" fill-opacity="1" d="M 287.160156 295.378906 L 705 295.378906 L 705 299.460938 L 287.160156 299.460938 Z M 287.160156 295.378906 "/>
<path fill-rule="evenodd" fill="rgb(1.959229%, 38.798523%, 75.698853%)" fill-opacity="1" d="M 287.160156 385.859375 L 1105.320312 385.859375 L 1105.320312 388.261719 L 287.160156 388.261719 Z M 287.160156 385.859375 "/>
<path fill-rule="evenodd" fill="rgb(1.959229%, 38.798523%, 75.698853%)" fill-opacity="1" d="M 287.160156 472.261719 L 1465.320312 472.261719 L 1465.320312 474.660156 L 287.160156 474.660156 Z M 287.160156 472.261719 "/>
<path fill-rule="evenodd" fill="rgb(0%, 0%, 0%)" fill-opacity="1" d="M 287.160156 592.261719 L 623.640625 592.261719 L 623.640625 588.179688 L 287.160156 588.179688 Z M 287.160156 592.261719 "/>
<path fill-rule="evenodd" fill="rgb(1.959229%, 38.798523%, 75.698853%)" fill-opacity="1" d="M 287.160156 678.660156 L 934.441406 678.660156 L 934.441406 681.058594 L 287.160156 681.058594 Z M 287.160156 678.660156 "/>
<path fill-rule="evenodd" fill="rgb(1.959229%, 38.798523%, 75.698853%)" fill-opacity="1" d="M 287.160156 765.058594 L 1782.121094 765.058594 L 1782.121094 767.460938 L 287.160156 767.460938 Z M 287.160156 765.058594 "/>
<path fill-rule="evenodd" fill="rgb(1.959229%, 38.798523%, 75.698853%)" fill-opacity="1" d="M 287.160156 810.660156 L 360.839844 810.660156 L 360.839844 808.261719 L 287.160156 808.261719 Z M 287.160156 810.660156 "/>
</svg>
